<svg width="25" height="24" viewBox="0 0 25 24" fill="none" xmlns="http://www.w3.org/2000/svg">
<path d="M21.4794 2.86289C21.4452 2.83599 21.4246 2.80191 21.4175 2.76065C21.411 2.72375 21.419 2.68842 21.4416 2.65463C21.6003 2.38266 21.7165 2.16461 21.7903 2.00047C21.8666 1.83825 21.8951 1.69402 21.8759 1.56777C21.861 1.44099 21.797 1.30133 21.6838 1.14878C21.5706 0.996236 21.4066 0.797755 21.1918 0.553337C21.1277 0.479084 21.1226 0.407647 21.1766 0.339025C21.2036 0.304713 21.2368 0.285173 21.2761 0.280404C21.3154 0.275635 21.3529 0.283285 21.3885 0.303355C21.6669 0.466896 21.8917 0.588177 22.0627 0.667199C22.2357 0.74377 22.3855 0.774371 22.5122 0.759004C22.6433 0.743107 22.7809 0.678756 22.925 0.565953C23.0711 0.450699 23.2583 0.280567 23.4867 0.0555564C23.5563 -0.012735 23.6277 -0.0180672 23.7009 0.0395597C23.7742 0.0971865 23.7836 0.168094 23.7292 0.252283C23.5681 0.522335 23.4494 0.738469 23.3732 0.900686C23.2993 1.06482 23.2721 1.21002 23.2913 1.33627C23.313 1.46444 23.3804 1.60479 23.4936 1.75734C23.6087 1.90743 23.7725 2.10373 23.9848 2.34623C24.0489 2.42048 24.054 2.49192 24 2.56054C23.946 2.62916 23.8705 2.63721 23.7735 2.58468C23.4936 2.42797 23.2684 2.31228 23.0979 2.23763C22.9274 2.16298 22.7775 2.13238 22.6484 2.14583C22.5216 2.16119 22.3862 2.22528 22.2421 2.33808C22.1005 2.45281 21.9173 2.62022 21.6928 2.84033C21.6237 2.91299 21.5526 2.92051 21.4794 2.86289Z" fill="#6834B7"/>
<path d="M18.8376 9.16189C18.7497 9.16189 18.6744 9.13355 18.6117 9.07686C18.5552 9.02647 18.5239 8.96034 18.5176 8.87846C18.4297 8.24862 18.3419 7.75734 18.2541 7.40462C18.1725 7.05191 18.0376 6.78737 17.8494 6.61102C17.6674 6.42836 17.3914 6.28665 17.0212 6.18587C16.651 6.0851 16.1428 5.97487 15.4966 5.8552C15.3021 5.81741 15.2049 5.71034 15.2049 5.53398C15.2049 5.44581 15.2331 5.37337 15.2896 5.31669C15.346 5.26 15.415 5.22536 15.4966 5.21276C16.1428 5.12458 16.651 5.03641 17.0212 4.94823C17.3914 4.85375 17.6674 4.71519 17.8494 4.53253C18.0376 4.34358 18.1756 4.06959 18.2635 3.71058C18.3513 3.34527 18.436 2.8414 18.5176 2.19896C18.5427 2.0037 18.6493 1.90608 18.8376 1.90608C19.0258 1.90608 19.1293 2.00685 19.1481 2.2084C19.2297 2.83825 19.3112 3.32953 19.3928 3.68224C19.4806 4.03495 19.6187 4.29949 19.8069 4.47584C20.0014 4.6522 20.2837 4.79077 20.6539 4.89154C21.0241 4.98602 21.5291 5.09309 22.1691 5.21276C22.3636 5.25055 22.4608 5.35763 22.4608 5.53398C22.4608 5.71034 22.351 5.81741 22.1314 5.8552C21.4915 5.95598 20.9896 6.05361 20.6257 6.14808C20.2618 6.24256 19.9857 6.38112 19.7975 6.56378C19.6155 6.74644 19.4806 7.01727 19.3928 7.37628C19.3112 7.73529 19.2297 8.22972 19.1481 8.85956C19.1293 9.06112 19.0258 9.16189 18.8376 9.16189Z" fill="#6834B7"/>
<path fill-rule="evenodd" clip-rule="evenodd" d="M6.18066 17.7903L6.8692 15.6916H10.4561L11.1367 17.7903H13.3242L9.60547 7.83713H7.69824L4 17.7903H6.18066ZM7.39625 14.0852L8.67297 10.1938L9.93506 14.0852H7.39625Z" fill="#6834B7"/>
<path d="M16.4277 17.7903V7.83713H14.3838V17.7903H16.4277Z" fill="#6834B7"/>
</svg>
