<svg width="16" height="16" viewBox="0 0 16 16" fill="none" xmlns="http://www.w3.org/2000/svg">
<mask id="mask0_303_24156" style="mask-type:alpha" maskUnits="userSpaceOnUse" x="0" y="0" width="16" height="16">
<rect width="16" height="16" fill="#D9D9D9"/>
</mask>
<g mask="url(#mask0_303_24156)">
<path d="M7.99992 8.93398L9.93325 10.8673C10.0555 10.9895 10.211 11.0507 10.3999 11.0507C10.5888 11.0507 10.7444 10.9895 10.8666 10.8673C10.9888 10.7451 11.0499 10.5895 11.0499 10.4007C11.0499 10.2118 10.9888 10.0562 10.8666 9.93398L8.93325 8.00065L10.8666 6.06732C10.9888 5.9451 11.0499 5.78954 11.0499 5.60065C11.0499 5.41176 10.9888 5.25621 10.8666 5.13398C10.7444 5.01176 10.5888 4.95065 10.3999 4.95065C10.211 4.95065 10.0555 5.01176 9.93325 5.13398L7.99992 7.06732L6.06658 5.13398C5.94436 5.01176 5.78881 4.95065 5.59992 4.95065C5.41103 4.95065 5.25547 5.01176 5.13325 5.13398C5.01103 5.25621 4.94992 5.41176 4.94992 5.60065C4.94992 5.78954 5.01103 5.9451 5.13325 6.06732L7.06659 8.00065L5.13325 9.93398C5.01103 10.0562 4.94992 10.2118 4.94992 10.4007C4.94992 10.5895 5.01103 10.7451 5.13325 10.8673C5.25547 10.9895 5.41103 11.0507 5.59992 11.0507C5.78881 11.0507 5.94436 10.9895 6.06658 10.8673L7.99992 8.93398ZM7.99992 14.6673C7.0777 14.6673 6.21103 14.4923 5.39992 14.1423C4.58881 13.7923 3.88325 13.3173 3.28325 12.7173C2.68325 12.1173 2.20825 11.4118 1.85825 10.6007C1.50825 9.78954 1.33325 8.92287 1.33325 8.00065C1.33325 7.07843 1.50825 6.21176 1.85825 5.40065C2.20825 4.58954 2.68325 3.88398 3.28325 3.28398C3.88325 2.68398 4.58881 2.20898 5.39992 1.85898C6.21103 1.50898 7.0777 1.33398 7.99992 1.33398C8.92214 1.33398 9.78881 1.50898 10.5999 1.85898C11.411 2.20898 12.1166 2.68398 12.7166 3.28398C13.3166 3.88398 13.7916 4.58954 14.1416 5.40065C14.4916 6.21176 14.6666 7.07843 14.6666 8.00065C14.6666 8.92287 14.4916 9.78954 14.1416 10.6007C13.7916 11.4118 13.3166 12.1173 12.7166 12.7173C12.1166 13.3173 11.411 13.7923 10.5999 14.1423C9.78881 14.4923 8.92214 14.6673 7.99992 14.6673Z" fill="#DE1B0C"/>
</g>
</svg>
