<svg width="16" height="16" viewBox="0 0 16 16" fill="none" xmlns="http://www.w3.org/2000/svg">
<mask id="mask0_23_5831" style="mask-type:alpha" maskUnits="userSpaceOnUse" x="0" y="0" width="16" height="16">
<rect width="16" height="16" fill="#D9D9D9"/>
</mask>
<g mask="url(#mask0_23_5831)">
<path d="M7.13743 8.93078L6.02203 7.83207C5.92973 7.73976 5.83037 7.69253 5.72396 7.6904C5.61755 7.68826 5.51605 7.73548 5.41948 7.83207C5.3229 7.92864 5.27461 8.03184 5.27461 8.14167C5.27461 8.25149 5.3229 8.35469 5.41948 8.45127L6.76563 9.79742C6.87503 9.90682 6.99896 9.96152 7.13743 9.96152C7.27588 9.96152 7.39981 9.90682 7.50921 9.79742L10.5682 6.73845C10.6605 6.64615 10.7077 6.54402 10.7098 6.43205C10.712 6.32008 10.6648 6.21581 10.5682 6.11923C10.4716 6.02266 10.3712 5.97437 10.2669 5.97437C10.1626 5.97437 10.0622 6.02266 9.96564 6.11923L7.13743 8.93078ZM8.00136 14.0667C7.16985 14.0667 6.38538 13.9088 5.64796 13.593C4.91053 13.2772 4.26507 12.8427 3.71159 12.2895C3.1581 11.7363 2.7234 11.0911 2.40748 10.354C2.09155 9.61692 1.93359 8.83263 1.93359 8.00112C1.93359 7.15849 2.09148 6.37125 2.40726 5.63938C2.72304 4.90751 3.15754 4.26483 3.71076 3.71135C4.26399 3.15786 4.90916 2.72316 5.64624 2.40723C6.38332 2.09131 7.16762 1.93335 7.99913 1.93335C8.84175 1.93335 9.62899 2.09124 10.3609 2.40702C11.0927 2.72279 11.7354 3.15729 12.2889 3.71052C12.8424 4.26375 13.2771 4.90613 13.593 5.63767C13.9089 6.36919 14.0669 7.15626 14.0669 7.99888C14.0669 8.8304 13.909 9.61486 13.5932 10.3523C13.2774 11.0897 12.843 11.7352 12.2897 12.2886C11.7365 12.8421 11.0941 13.2768 10.3626 13.5928C9.63105 13.9087 8.84398 14.0667 8.00136 14.0667ZM8.00024 13.2C9.44469 13.2 10.6725 12.6944 11.6836 11.6833C12.6947 10.6722 13.2002 9.44444 13.2002 8C13.2002 6.55556 12.6947 5.32778 11.6836 4.31667C10.6725 3.30556 9.44469 2.8 8.00024 2.8C6.5558 2.8 5.32802 3.30556 4.31691 4.31667C3.3058 5.32778 2.80024 6.55556 2.80024 8C2.80024 9.44444 3.3058 10.6722 4.31691 11.6833C5.32802 12.6944 6.5558 13.2 8.00024 13.2Z" fill="#4CAE3D"/>
</g>
</svg>
