<svg width="20" height="20" viewBox="0 0 20 20" fill="none" xmlns="http://www.w3.org/2000/svg">
<mask id="mask0_20_44042" style="mask-type:alpha" maskUnits="userSpaceOnUse" x="0" y="0" width="20" height="20">
<rect width="20" height="20" fill="#D9D9D9"/>
</mask>
<g mask="url(#mask0_20_44042)">
<path d="M9.99991 8.78242L6.43899 12.3433C6.32362 12.4587 6.19595 12.5178 6.05599 12.5204C5.91605 12.5231 5.78571 12.4641 5.66499 12.3433C5.54426 12.2226 5.48389 12.0936 5.48389 11.9563C5.48389 11.819 5.5466 11.6877 5.67203 11.5623L9.53518 7.69913C9.60483 7.63503 9.67807 7.58695 9.75489 7.5549C9.83169 7.52286 9.91476 7.50684 10.0041 7.50684C10.0934 7.50684 10.1765 7.52286 10.2533 7.5549C10.3301 7.58695 10.4005 7.63503 10.4646 7.69913L14.3278 11.5623C14.4479 11.6824 14.5092 11.8089 14.5119 11.9419C14.5146 12.0749 14.4556 12.2018 14.3348 12.3225C14.2141 12.4432 14.0851 12.5036 13.9478 12.5036C13.8105 12.5036 13.6815 12.4432 13.5608 12.3225L9.99991 8.78242Z" fill="#303030"/>
</g>
</svg>
