<svg width="20" height="20" viewBox="0 0 20 20" fill="none" xmlns="http://www.w3.org/2000/svg">
<mask id="mask0_20_44039" style="mask-type:alpha" maskUnits="userSpaceOnUse" x="0" y="0" width="20" height="20">
<rect width="20" height="20" fill="#D9D9D9"/>
</mask>
<g mask="url(#mask0_20_44039)">
<path d="M9.99568 12.5098C9.90636 12.5098 9.8233 12.4938 9.7465 12.4617C9.66968 12.4297 9.59922 12.3816 9.53512 12.3175L5.67198 8.45433C5.55189 8.33426 5.49399 8.20425 5.49827 8.06429C5.50253 7.92433 5.56503 7.79399 5.68577 7.67327C5.80649 7.55255 5.93549 7.49219 6.07277 7.49219C6.21005 7.49219 6.33904 7.55255 6.45977 7.67327L9.99985 11.2342L13.5608 7.67327C13.6761 7.55789 13.8038 7.50234 13.9438 7.5066C14.0837 7.51088 14.214 7.57338 14.3348 7.6941C14.4555 7.81483 14.5159 7.94383 14.5159 8.08112C14.5159 8.2184 14.4532 8.34936 14.3277 8.474L10.4646 12.3175C10.3949 12.3816 10.3217 12.4297 10.2449 12.4617C10.1681 12.4938 10.085 12.5098 9.99568 12.5098Z" fill="#303030"/>
</g>
</svg>
