<svg width="28" height="28" viewBox="0 0 28 28" fill="none" xmlns="http://www.w3.org/2000/svg">
<mask id="mask0_17_43623" style="mask-type:alpha" maskUnits="userSpaceOnUse" x="4" y="4" width="20" height="20">
<rect x="4" y="4" width="20" height="20" fill="#D9D9D9"/>
</mask>
<g mask="url(#mask0_17_43623)">
<path d="M12.9213 15.1798L11.527 13.8064C11.4117 13.691 11.2875 13.632 11.1545 13.6293C11.0214 13.6267 10.8946 13.6857 10.7739 13.8064C10.6531 13.9271 10.5928 14.0561 10.5928 14.1934C10.5928 14.3307 10.6531 14.4597 10.7739 14.5804L12.4565 16.2631C12.5883 16.3999 12.7419 16.4682 12.9175 16.4682C13.0931 16.4682 13.2493 16.3999 13.386 16.2631L17.2097 12.4394C17.3251 12.324 17.3841 12.1963 17.3868 12.0564C17.3895 11.9164 17.3305 11.7861 17.2097 11.6654C17.089 11.5447 16.9635 11.4843 16.8331 11.4843C16.7028 11.4843 16.5773 11.5447 16.4566 11.6654L12.9213 15.1798ZM8.75625 20.5836C8.38649 20.5836 8.07076 20.4528 7.80907 20.1911C7.54736 19.9294 7.4165 19.6136 7.4165 19.2439V8.75674C7.4165 8.38698 7.54736 8.07125 7.80907 7.80956C8.07076 7.54785 8.38649 7.41699 8.75625 7.41699H12.5271C12.51 7.02384 12.6425 6.67556 12.9245 6.37214C13.2066 6.06871 13.565 5.91699 13.9998 5.91699C14.44 5.91699 14.8011 6.06871 15.0831 6.37214C15.3652 6.67556 15.495 7.02384 15.4725 7.41699H19.2434C19.6131 7.41699 19.9289 7.54785 20.1906 7.80956C20.4523 8.07125 20.5831 8.38698 20.5831 8.75674V19.2439C20.5831 19.6136 20.4523 19.9294 20.1906 20.1911C19.9289 20.4528 19.6131 20.5836 19.2434 20.5836H8.75625ZM8.75625 19.5003H19.2434C19.3075 19.5003 19.3663 19.4736 19.4197 19.4202C19.4731 19.3667 19.4998 19.308 19.4998 19.2439V8.75674C19.4998 8.69263 19.4731 8.63386 19.4197 8.58043C19.3663 8.52701 19.3075 8.50031 19.2434 8.50031H8.75625C8.69214 8.50031 8.63337 8.52701 8.57994 8.58043C8.52652 8.63386 8.49982 8.69263 8.49982 8.75674V19.2439C8.49982 19.308 8.52652 19.3667 8.57994 19.4202C8.63337 19.4736 8.69214 19.5003 8.75625 19.5003ZM13.9998 8.08043C14.1443 8.08043 14.2637 8.03321 14.3582 7.93876C14.4526 7.84432 14.4998 7.72487 14.4998 7.58043C14.4998 7.43599 14.4526 7.31654 14.3582 7.2221C14.2637 7.12765 14.1443 7.08043 13.9998 7.08043C13.8554 7.08043 13.7359 7.12765 13.6415 7.2221C13.547 7.31654 13.4998 7.43599 13.4998 7.58043C13.4998 7.72487 13.547 7.84432 13.6415 7.93876C13.7359 8.03321 13.8554 8.08043 13.9998 8.08043Z" fill="#303030"/>
</g>
</svg>
