<svg width="28" height="28" viewBox="0 0 28 28" fill="none" xmlns="http://www.w3.org/2000/svg">
<mask id="mask0_17_43611" style="mask-type:alpha" maskUnits="userSpaceOnUse" x="4" y="4" width="20" height="20">
<rect x="4" y="4" width="20" height="20" fill="#D9D9D9"/>
</mask>
<g mask="url(#mask0_17_43611)">
<path d="M11.1457 16.2631C11.3337 16.7984 11.6334 17.2482 12.0447 17.6125C12.456 17.9768 12.925 18.23 13.4518 18.3721V18.8128C13.4518 18.9645 13.5052 19.0903 13.612 19.1902C13.7188 19.2901 13.8481 19.34 13.9998 19.34C14.1515 19.34 14.2773 19.2866 14.3772 19.1798C14.4771 19.073 14.527 18.9437 14.527 18.792V18.3929C15.1595 18.3192 15.71 18.0556 16.1785 17.6021C16.647 17.1485 16.8812 16.6146 16.8812 16.0003C16.8812 15.3753 16.6849 14.8593 16.2923 14.4522C15.8997 14.0452 15.3075 13.6958 14.5158 13.4042C13.6259 13.0772 13.0615 12.8008 12.8227 12.5748C12.5839 12.3489 12.4645 12.0462 12.4645 11.667C12.4645 11.3571 12.6048 11.0932 12.8852 10.8753C13.1657 10.6573 13.5164 10.5484 13.9373 10.5484C14.3155 10.5484 14.6585 10.6368 14.9662 10.8136C15.2739 10.9904 15.4923 11.2332 15.6216 11.542L16.5463 11.1493C16.3582 10.7337 16.0882 10.3924 15.7362 10.1253C15.3841 9.85822 14.9811 9.68568 14.527 9.60768V9.18781C14.527 9.0361 14.4771 8.9103 14.3772 8.81041C14.2773 8.71052 14.1515 8.66058 13.9998 8.66058C13.8481 8.66058 13.7223 8.71052 13.6224 8.81041C13.5225 8.9103 13.4726 9.0361 13.4726 9.18781V9.62851C12.8316 9.75137 12.3276 10.0014 11.9606 10.3785C11.5936 10.7557 11.4101 11.1921 11.4101 11.6878C11.4101 12.2861 11.6206 12.7933 12.0415 13.2094C12.4624 13.6256 13.1499 14.0014 14.104 14.3368C14.7397 14.5644 15.1919 14.8072 15.4606 15.0652C15.7293 15.3232 15.8636 15.6349 15.8636 16.0003C15.8636 16.4255 15.6924 16.7703 15.35 17.0348C15.0076 17.2992 14.6144 17.4314 14.1705 17.4314C13.6988 17.4314 13.2779 17.28 12.9077 16.9771C12.5375 16.6742 12.2739 16.2931 12.1168 15.8337L11.1457 16.2631ZM14.0012 21.5836C12.9618 21.5836 11.9812 21.3863 11.0595 20.9915C10.1377 20.5968 9.33085 20.0537 8.639 19.3622C7.94714 18.6706 7.40376 17.8642 7.00886 16.9428C6.61396 16.0215 6.4165 15.0411 6.4165 14.0017C6.4165 12.9484 6.61387 11.9644 7.00859 11.0495C7.40331 10.1347 7.94643 9.33134 8.63796 8.63949C9.3295 7.94763 10.136 7.40425 11.0573 7.00935C11.9787 6.61444 12.959 6.41699 13.9984 6.41699C15.0517 6.41699 16.0358 6.61435 16.9506 7.00908C17.8654 7.4038 18.6688 7.94692 19.3606 8.63845C20.0525 9.32999 20.5959 10.133 20.9908 11.0474C21.3857 11.9618 21.5831 12.9456 21.5831 13.9989C21.5831 15.0383 21.3858 16.0189 20.991 16.9407C20.5963 17.8625 20.0532 18.6693 19.3617 19.3611C18.6701 20.053 17.8671 20.5964 16.9527 20.9913C16.0383 21.3862 15.0545 21.5836 14.0012 21.5836ZM13.9998 20.5003C15.8054 20.5003 17.3401 19.8684 18.604 18.6045C19.8679 17.3406 20.4998 15.8059 20.4998 14.0003C20.4998 12.1947 19.8679 10.66 18.604 9.39614C17.3401 8.13225 15.8054 7.50031 13.9998 7.50031C12.1943 7.50031 10.6595 8.13225 9.39565 9.39614C8.13176 10.66 7.49982 12.1947 7.49982 14.0003C7.49982 15.8059 8.13176 17.3406 9.39565 18.6045C10.6595 19.8684 12.1943 20.5003 13.9998 20.5003Z" fill="#303030"/>
</g>
</svg>
