<svg width="28" height="28" viewBox="0 0 28 28" fill="none" xmlns="http://www.w3.org/2000/svg">
<rect width="28" height="28" rx="4" fill="#C7D6F6"/>
<mask id="mask0_17_43599" style="mask-type:alpha" maskUnits="userSpaceOnUse" x="4" y="4" width="20" height="20">
<rect x="4" y="4" width="20" height="20" fill="#D9D9D9"/>
</mask>
<g mask="url(#mask0_17_43599)">
<path d="M13.9955 21.6478C13.6191 21.6478 13.2957 21.5183 13.0255 21.2593C12.7552 21.0003 12.6067 20.6832 12.58 20.308H15.4196C15.393 20.6873 15.243 21.0055 14.9698 21.2624C14.6965 21.5194 14.3717 21.6478 13.9955 21.6478ZM11.2082 18.9874V17.9041H16.7915V18.9874H11.2082ZM10.8155 16.5837C10.0399 16.0825 9.44623 15.4255 9.03442 14.6124C8.62248 13.7995 8.4165 12.9288 8.4165 12.0003C8.4165 10.4459 8.95845 9.12671 10.0423 8.04283C11.1262 6.95894 12.4454 6.41699 13.9998 6.41699C15.5543 6.41699 16.8734 6.95894 17.9573 8.04283C19.0412 9.12671 19.5832 10.4459 19.5832 12.0003C19.5832 12.9288 19.3772 13.7995 18.9653 14.6124C18.5534 15.4255 17.9598 16.0825 17.1842 16.5837H10.8155ZM11.1665 15.5003H16.8332C17.3609 15.0698 17.7707 14.5489 18.0623 13.9378C18.354 13.3267 18.4998 12.6809 18.4998 12.0003C18.4998 10.7457 18.0639 9.68213 17.1921 8.80949C16.3203 7.93672 15.2578 7.50033 14.0046 7.50033C12.7514 7.50033 11.6873 7.93672 10.8123 8.80949C9.93734 9.68213 9.49984 10.7457 9.49984 12.0003C9.49984 12.6809 9.64567 13.3267 9.93734 13.9378C10.229 14.5489 10.6387 15.0698 11.1665 15.5003Z" fill="#303030"/>
</g>
</svg>
