<svg width="28" height="28" viewBox="0 0 28 28" fill="none" xmlns="http://www.w3.org/2000/svg">
<mask id="mask0_17_43631" style="mask-type:alpha" maskUnits="userSpaceOnUse" x="4" y="4" width="20" height="20">
<rect x="4" y="4" width="20" height="20" fill="#D9D9D9"/>
</mask>
<g mask="url(#mask0_17_43631)">
<path d="M6.66504 17.9868C6.66504 17.6715 6.74116 17.3932 6.89341 17.1518C7.04565 16.9104 7.25837 16.7099 7.53158 16.5503C8.21243 16.149 8.92891 15.833 9.68104 15.6023C10.4332 15.3715 11.2889 15.2561 12.2484 15.2561C13.2078 15.2561 14.0635 15.3715 14.8156 15.6023C15.5678 15.833 16.2843 16.149 16.9651 16.5503C17.2383 16.7099 17.4511 16.9104 17.6033 17.1518C17.7555 17.3932 17.8316 17.6715 17.8316 17.9868V18.3234C17.8316 18.613 17.7248 18.8686 17.511 19.0903C17.2972 19.3119 17.0374 19.4227 16.7315 19.4227H7.75848C7.45259 19.4227 7.19388 19.3159 6.98235 19.1023C6.77081 18.8887 6.66504 18.629 6.66504 18.3234V17.9868ZM20.2355 19.4227H19.072C19.149 19.2454 19.2115 19.0648 19.2595 18.8811C19.3076 18.6975 19.3316 18.5115 19.3316 18.3234V18.0509C19.3316 17.5317 19.2324 17.0555 19.034 16.6224C18.8356 16.1893 18.5737 15.837 18.2484 15.5654C18.6404 15.6765 19.0285 15.8125 19.4126 15.9733C19.7967 16.134 20.1751 16.3266 20.548 16.551C20.7841 16.6834 20.9743 16.8859 21.1185 17.1584C21.2627 17.4309 21.3348 17.7284 21.3348 18.0509V18.3234C21.3348 18.629 21.228 18.8887 21.0144 19.1023C20.8008 19.3159 20.5412 19.4227 20.2355 19.4227ZM12.2484 13.7432C11.5296 13.7432 10.9194 13.4924 10.4176 12.9906C9.91591 12.4889 9.66504 11.8787 9.66504 11.1599C9.66504 10.4412 9.91591 9.83095 10.4176 9.32923C10.9194 8.82749 11.5296 8.57662 12.2484 8.57662C12.9671 8.57662 13.5773 8.82749 14.0791 9.32923C14.5808 9.83095 14.8316 10.4412 14.8316 11.1599C14.8316 11.8787 14.5808 12.4889 14.0791 12.9906C13.5773 13.4924 12.9671 13.7432 12.2484 13.7432ZM18.1105 11.1599C18.1105 11.8787 17.8596 12.4889 17.3579 12.9906C16.8561 13.4924 16.2459 13.7432 15.5271 13.7432C15.4748 13.7432 15.4454 13.7464 15.439 13.7529C15.4326 13.7593 15.4032 13.7566 15.3509 13.7449C15.6518 13.3914 15.8904 12.9982 16.0669 12.5653C16.2434 12.1324 16.3316 11.6636 16.3316 11.1589C16.3316 10.6543 16.2416 10.1875 16.0616 9.7585C15.8816 9.32956 15.6447 8.93506 15.3509 8.57502C15.3872 8.57395 15.4166 8.57395 15.439 8.57502C15.4614 8.57609 15.4908 8.57662 15.5271 8.57662C16.2459 8.57662 16.8561 8.82749 17.3579 9.32923C17.8596 9.83095 18.1105 10.4412 18.1105 11.1599ZM7.74835 18.3394H16.7484V17.9868C16.7484 17.8756 16.722 17.7779 16.6693 17.6937C16.6166 17.6094 16.5238 17.5309 16.391 17.458C15.8023 17.1044 15.1655 16.8295 14.4807 16.6335C13.7959 16.4374 13.0518 16.3394 12.2484 16.3394C11.4449 16.3394 10.7008 16.4339 10.016 16.623C9.33116 16.8122 8.69441 17.0905 8.10573 17.458C7.97288 17.5293 7.8801 17.6056 7.82739 17.6869C7.7747 17.7683 7.74835 17.8676 7.74835 17.9849V18.3394ZM12.2528 12.6599C12.6665 12.6599 13.0192 12.5126 13.3109 12.218C13.6025 11.9234 13.7484 11.5692 13.7484 11.1555C13.7484 10.7418 13.601 10.3891 13.3064 10.0974C13.0118 9.80577 12.6576 9.65994 12.2439 9.65994C11.8302 9.65994 11.4775 9.80724 11.1859 10.1019C10.8942 10.3965 10.7484 10.7506 10.7484 11.1644C10.7484 11.5781 10.8957 11.9308 11.1903 12.2224C11.4849 12.5141 11.8391 12.6599 12.2528 12.6599Z" fill="#303030"/>
</g>
</svg>
