<svg width="28" height="28" viewBox="0 0 28 28" fill="none" xmlns="http://www.w3.org/2000/svg">
<mask id="mask0_17_43603" style="mask-type:alpha" maskUnits="userSpaceOnUse" x="4" y="4" width="20" height="20">
<rect x="4" y="4" width="20" height="20" fill="#D9D9D9"/>
</mask>
<g mask="url(#mask0_17_43603)">
<path d="M10.8499 18.8248L13.9999 16.9248L17.1499 18.8498L16.3249 15.2498L19.0999 12.8498L15.4499 12.5248L13.9999 9.12483L12.5499 12.4998L8.8999 12.8248L11.6749 15.2498L10.8499 18.8248ZM13.9999 18.1018L10.3691 20.2941C10.2627 20.3466 10.164 20.3678 10.073 20.3575C9.98194 20.3473 9.89347 20.3159 9.80757 20.2633C9.72169 20.2107 9.6563 20.1354 9.61142 20.0373C9.56655 19.9393 9.56271 19.8332 9.5999 19.7191L10.5653 15.6095L7.37105 12.8383C7.2813 12.7652 7.222 12.6777 7.19315 12.5758C7.16431 12.4739 7.1704 12.3761 7.21142 12.2825C7.25245 12.1889 7.30759 12.1126 7.37682 12.0537C7.44604 11.9947 7.53962 11.9549 7.65757 11.9344L11.873 11.5671L13.5172 7.67483C13.5621 7.56456 13.6271 7.48507 13.7124 7.43636C13.7976 7.38764 13.8935 7.36328 13.9999 7.36328C14.1063 7.36328 14.2021 7.38764 14.2874 7.43636C14.3726 7.48507 14.4377 7.56456 14.4826 7.67483L16.1268 11.5671L20.3422 11.9344C20.4602 11.9549 20.5538 11.9947 20.623 12.0537C20.6922 12.1126 20.7473 12.1889 20.7884 12.2825C20.8294 12.3761 20.8355 12.4739 20.8066 12.5758C20.7778 12.6777 20.7185 12.7652 20.6287 12.8383L17.4345 15.6095L18.3999 19.7191C18.4371 19.8332 18.4332 19.9393 18.3884 20.0373C18.3435 20.1354 18.2781 20.2107 18.1922 20.2633C18.1063 20.3159 18.0179 20.3473 17.9268 20.3575C17.8358 20.3678 17.7371 20.3466 17.6307 20.2941L13.9999 18.1018Z" fill="#303030"/>
</g>
</svg>
