<svg width="28" height="28" viewBox="0 0 28 28" fill="none" xmlns="http://www.w3.org/2000/svg">
<mask id="mask0_17_43619" style="mask-type:alpha" maskUnits="userSpaceOnUse" x="4" y="4" width="20" height="20">
<rect x="4" y="4" width="20" height="20" fill="#D9D9D9"/>
</mask>
<g mask="url(#mask0_17_43619)">
<path d="M8.99977 20.6792C8.25459 20.6792 7.62172 20.419 7.10115 19.8984C6.58059 19.3778 6.32031 18.745 6.32031 17.9998C6.32031 17.2546 6.58059 16.6217 7.10115 16.1011C7.62172 15.5806 8.25459 15.3203 8.99977 15.3203C9.74495 15.3203 10.3778 15.5806 10.8984 16.1011C11.419 16.6217 11.6792 17.2546 11.6792 17.9998C11.6792 18.745 11.419 19.3778 10.8984 19.8984C10.3778 20.419 9.74495 20.6792 8.99977 20.6792ZM18.9998 20.6792C18.2546 20.6792 17.6217 20.419 17.1011 19.8984C16.5806 19.3778 16.3203 18.745 16.3203 17.9998C16.3203 17.2546 16.5806 16.6217 17.1011 16.1011C17.6217 15.5806 18.2546 15.3203 18.9998 15.3203C19.745 15.3203 20.3778 15.5806 20.8984 16.1011C21.419 16.6217 21.6792 17.2546 21.6792 17.9998C21.6792 18.745 21.419 19.3778 20.8984 19.8984C20.3778 20.419 19.745 20.6792 18.9998 20.6792ZM9.00448 19.5959C9.44472 19.5959 9.82001 19.4392 10.1304 19.1257C10.4408 18.8122 10.5959 18.4353 10.5959 17.9951C10.5959 17.5548 10.4392 17.1795 10.1257 16.8692C9.81217 16.5588 9.4353 16.4036 8.99506 16.4036C8.55483 16.4036 8.17953 16.5604 7.86917 16.8739C7.55879 17.1874 7.4036 17.5642 7.4036 18.0045C7.4036 18.4447 7.56036 18.82 7.87388 19.1304C8.18738 19.4407 8.56424 19.5959 9.00448 19.5959ZM19.0045 19.5959C19.4447 19.5959 19.82 19.4392 20.1304 19.1257C20.4407 18.8122 20.5959 18.4353 20.5959 17.9951C20.5959 17.5548 20.4392 17.1795 20.1257 16.8692C19.8122 16.5588 19.4353 16.4036 18.9951 16.4036C18.5548 16.4036 18.1795 16.5604 17.8692 16.8739C17.5588 17.1874 17.4036 17.5642 17.4036 18.0045C17.4036 18.4447 17.5604 18.82 17.8739 19.1304C18.1874 19.4407 18.5642 19.5959 19.0045 19.5959ZM13.9998 12.6792C13.2546 12.6792 12.6217 12.419 12.1011 11.8984C11.5806 11.3778 11.3203 10.745 11.3203 9.99977C11.3203 9.25459 11.5806 8.62172 12.1011 8.10115C12.6217 7.58059 13.2546 7.32031 13.9998 7.32031C14.745 7.32031 15.3778 7.58059 15.8984 8.10115C16.419 8.62172 16.6792 9.25459 16.6792 9.99977C16.6792 10.745 16.419 11.3778 15.8984 11.8984C15.3778 12.419 14.745 12.6792 13.9998 12.6792ZM14.0045 11.5959C14.4447 11.5959 14.82 11.4392 15.1304 11.1257C15.4407 10.8122 15.5959 10.4353 15.5959 9.99506C15.5959 9.55483 15.4392 9.17953 15.1257 8.86917C14.8122 8.55879 14.4353 8.4036 13.9951 8.4036C13.5548 8.4036 13.1795 8.56036 12.8692 8.87387C12.5588 9.18737 12.4036 9.56424 12.4036 10.0045C12.4036 10.4447 12.5604 10.82 12.8739 11.1304C13.1874 11.4407 13.5642 11.5959 14.0045 11.5959Z" fill="#303030"/>
</g>
</svg>
