<svg width="28" height="28" viewBox="0 0 28 28" fill="none" xmlns="http://www.w3.org/2000/svg">
<mask id="mask0_17_43632" style="mask-type:alpha" maskUnits="userSpaceOnUse" x="4" y="4" width="20" height="20">
<rect x="4" y="4" width="20" height="20" fill="#D9D9D9"/>
</mask>
<g mask="url(#mask0_17_43632)">
<path d="M21.1075 14.5415H19.515C19.3618 14.5415 19.2323 14.4901 19.1266 14.3873C19.0208 14.2844 18.9679 14.1568 18.9679 14.0043C18.9679 13.8518 19.0196 13.7226 19.1229 13.6169C19.2262 13.5111 19.3545 13.4582 19.5077 13.4582H21.1002C21.2535 13.4582 21.3829 13.5096 21.4887 13.6125C21.5945 13.7153 21.6474 13.843 21.6474 13.9955C21.6474 14.148 21.5957 14.2771 21.4924 14.3829C21.389 14.4886 21.2608 14.5415 21.1075 14.5415ZM17.8894 18.0944C17.9823 17.9758 18.1015 17.9019 18.2467 17.8725C18.392 17.8431 18.524 17.8679 18.6426 17.947L19.9455 18.8479C20.0769 18.9332 20.1573 19.0554 20.1866 19.2146C20.216 19.3738 20.1842 19.5127 20.0913 19.6313C19.9983 19.7499 19.8792 19.8238 19.7339 19.8532C19.5886 19.8826 19.4567 19.8578 19.3381 19.7787L18.0352 18.8778C17.9038 18.7925 17.8234 18.6703 17.794 18.5111C17.7647 18.3519 17.7964 18.213 17.8894 18.0944ZM19.9118 9.0896L18.5897 10.0207C18.4711 10.0998 18.3357 10.1211 18.1834 10.0848C18.0312 10.0485 17.9156 9.97102 17.8365 9.85243C17.7574 9.73385 17.7326 9.59844 17.762 9.44621C17.7914 9.29397 17.8654 9.17832 17.9839 9.09925L19.3061 8.189C19.4246 8.10994 19.5601 8.0851 19.7123 8.11448C19.8645 8.14385 19.9802 8.21784 20.0592 8.33644C20.1383 8.45502 20.1631 8.59043 20.1337 8.74266C20.1044 8.8949 20.0304 9.01055 19.9118 9.0896ZM8.20831 15.6473H7.69227C7.32252 15.6473 7.00679 15.5164 6.74508 15.2547C6.48339 14.993 6.35254 14.6773 6.35254 14.3076V13.6922C6.35254 13.3224 6.48339 13.0067 6.74508 12.745C7.00679 12.4833 7.32252 12.3525 7.69227 12.3525H10.4759L13.6506 10.4903C13.8739 10.3535 14.0958 10.3453 14.3164 10.4655C14.5371 10.5857 14.6474 10.7756 14.6474 11.0352V16.9437C14.6474 17.2034 14.5336 17.3933 14.306 17.5135C14.0785 17.6337 13.853 17.6254 13.6297 17.4886L10.6009 15.6473H9.7916V18.7682C9.7916 18.9921 9.7158 19.1812 9.56421 19.3356C9.41261 19.49 9.22453 19.5671 8.99996 19.5671C8.77539 19.5671 8.5873 19.4913 8.43571 19.3397C8.28411 19.1882 8.20831 19.0001 8.20831 18.7755V15.6473ZM13.5641 16.1746V11.7835L10.7804 13.4358H7.69227C7.62817 13.4358 7.56941 13.4625 7.51598 13.5159C7.46256 13.5693 7.43585 13.6281 7.43585 13.6922V14.3076C7.43585 14.3717 7.46256 14.4304 7.51598 14.4839C7.56941 14.5373 7.62817 14.564 7.69227 14.564H10.9262L13.5641 16.1746ZM15.9679 16.2451V11.7547C16.2393 12.0229 16.4471 12.3575 16.5913 12.7587C16.7355 13.1599 16.8076 13.5736 16.8076 13.9999C16.8076 14.4262 16.7355 14.8399 16.5913 15.2411C16.4471 15.6422 16.2393 15.9769 15.9679 16.2451Z" fill="#303030"/>
</g>
</svg>
