<svg width="28" height="28" viewBox="0 0 28 28" fill="none" xmlns="http://www.w3.org/2000/svg">
<mask id="mask0_17_43635" style="mask-type:alpha" maskUnits="userSpaceOnUse" x="4" y="4" width="20" height="20">
<rect x="4" y="4" width="20" height="20" fill="#D9D9D9"/>
</mask>
<g mask="url(#mask0_17_43635)">
<circle cx="14" cy="14" r="2" stroke="#303030"/>
<path d="M13.2228 21.5836C13.0775 21.5836 12.9536 21.5449 12.851 21.4674C12.7484 21.39 12.6817 21.2829 12.6507 21.1461L12.3222 19.3368C11.96 19.2065 11.5922 19.0393 11.2188 18.8352C10.8454 18.6312 10.5107 18.3966 10.2148 18.1317L8.50002 18.7455C8.37716 18.7775 8.24949 18.7714 8.11702 18.727C7.98455 18.6827 7.8868 18.6007 7.82377 18.4811L7.0305 17.1028C6.96747 16.9832 6.94611 16.8598 6.9664 16.7327C6.9867 16.6056 7.04546 16.495 7.14267 16.401L8.51608 15.2135C8.48296 15.0201 8.45545 14.8227 8.43354 14.6213C8.41164 14.4199 8.40069 14.2156 8.40069 14.0083C8.40069 13.8064 8.41164 13.6061 8.43354 13.4073C8.45545 13.2086 8.48296 13.0019 8.51608 12.7872L7.14267 11.5996C7.04546 11.5056 6.98804 11.3937 6.9704 11.2639C6.95277 11.1341 6.97548 11.0094 7.03852 10.8897L7.82377 9.53558C7.8868 9.42127 7.98455 9.34061 8.11702 9.2936C8.24949 9.2466 8.37716 9.23912 8.50002 9.27116L10.2068 9.87695C10.5187 9.60665 10.8547 9.3708 11.2148 9.16941C11.5748 8.96801 11.9413 8.79946 12.3141 8.66378L12.6507 6.85447C12.6817 6.71774 12.7484 6.61064 12.851 6.53318C12.9536 6.45572 13.0775 6.41699 13.2228 6.41699H14.7773C14.9226 6.41699 15.0465 6.45572 15.149 6.53318C15.2516 6.61064 15.3184 6.71774 15.3494 6.85447L15.6779 8.67181C16.0668 8.81817 16.4319 8.9867 16.7733 9.17741C17.1146 9.36812 17.4439 9.6013 17.7612 9.87695L19.508 9.27116C19.6309 9.23912 19.7586 9.2466 19.891 9.2936C20.0235 9.34061 20.1213 9.42127 20.1843 9.53558L20.9695 10.8978C21.0326 11.0174 21.0539 11.1408 21.0336 11.2679C21.0133 11.3951 20.9546 11.5056 20.8574 11.5996L19.4519 12.8112C19.4957 13.0152 19.5259 13.214 19.5425 13.4073C19.559 13.6007 19.5673 13.7984 19.5673 14.0003C19.5673 14.1969 19.5577 14.3919 19.5385 14.5852C19.5192 14.7786 19.493 14.9854 19.4599 15.2055L20.8414 16.401C20.9386 16.495 20.9987 16.6056 21.0216 16.7327C21.0446 16.8598 21.0246 16.9832 20.9615 17.1028L20.1843 18.473C20.1213 18.5927 20.0222 18.6747 19.887 18.719C19.7519 18.7634 19.6229 18.7695 19.5 18.7375L17.7612 18.1237C17.4439 18.3993 17.1119 18.6352 16.7652 18.8312C16.4185 19.0273 16.0561 19.1931 15.6779 19.3288L15.3494 21.1461C15.3184 21.2829 15.2516 21.39 15.149 21.4674C15.0465 21.5449 14.9226 21.5836 14.7773 21.5836H13.2228ZM13.625 20.5003H14.367L14.7709 18.4138C15.2933 18.3165 15.7757 18.1413 16.218 17.8881C16.6603 17.6349 17.0588 17.2989 17.4135 16.8801L19.4215 17.5628L19.8045 16.9378L18.2051 15.534C18.2885 15.2765 18.3531 15.0233 18.3991 14.7743C18.445 14.5254 18.468 14.2674 18.468 14.0003C18.468 13.7279 18.445 13.4699 18.3991 13.2263C18.3531 12.9827 18.2885 12.7348 18.2051 12.4827L19.8205 11.0628L19.4375 10.4378L17.4055 11.1125C17.0988 10.7311 16.7057 10.4017 16.226 10.1245C15.7463 9.84726 15.2586 9.66804 14.7628 9.58685L14.375 7.50031H13.617L13.2372 9.57883C12.7148 9.66537 12.2284 9.83658 11.7781 10.0925C11.3277 10.3483 10.9252 10.6883 10.5705 11.1125L8.56252 10.4378L8.1795 11.0628L9.77086 12.4667C9.68752 12.6921 9.62155 12.9359 9.57294 13.1982C9.52433 13.4605 9.50002 13.7305 9.50002 14.0083C9.50002 14.2808 9.52433 14.5454 9.57294 14.8024C9.62155 15.0593 9.68485 15.3032 9.76283 15.534L8.1795 16.9378L8.56252 17.5628L10.5625 16.8961C10.9065 17.3043 11.3037 17.6363 11.754 17.8921C12.2043 18.148 12.6961 18.3246 13.2292 18.4218L13.625 20.5003Z" fill="#303030"/>
</g>
</svg>
