<svg width="28" height="28" viewBox="0 0 28 28" fill="none" xmlns="http://www.w3.org/2000/svg">
<mask id="mask0_17_43607" style="mask-type:alpha" maskUnits="userSpaceOnUse" x="4" y="4" width="20" height="20">
<rect x="4" y="4" width="20" height="20" fill="#D9D9D9"/>
</mask>
<g mask="url(#mask0_17_43607)">
<path d="M7.59598 20.2435V12.6793H7.51584C7.20602 12.6793 6.94534 12.5723 6.73382 12.3582C6.52227 12.144 6.4165 11.8838 6.4165 11.5774V9.9306C6.4165 9.62424 6.52332 9.36528 6.73694 9.15374C6.95055 8.94222 7.21018 8.83645 7.51584 8.83645H10.2258C10.1083 8.67299 10.0215 8.49287 9.96538 8.29608C9.9093 8.09928 9.88125 7.89265 9.88125 7.67618C9.88125 7.05297 10.0994 6.52324 10.5356 6.08699C10.9719 5.65074 11.5016 5.43262 12.1248 5.43262C12.4899 5.43262 12.8285 5.51702 13.1406 5.68583C13.4527 5.85463 13.7231 6.07899 13.9517 6.35891C14.1665 6.08433 14.4344 5.8613 14.7554 5.68983C15.0765 5.51835 15.4175 5.43262 15.7786 5.43262C16.4019 5.43262 16.9316 5.65074 17.3679 6.08699C17.8041 6.52324 18.0222 7.05297 18.0222 7.67618C18.0222 7.8749 17.9886 8.07496 17.9213 8.27635C17.8539 8.47774 17.7728 8.66444 17.6777 8.83645H20.4838C20.7894 8.83645 21.0491 8.94351 21.2627 9.15764C21.4763 9.37176 21.5831 9.63201 21.5831 9.93837V11.5852C21.5831 11.8916 21.4763 12.1505 21.2627 12.3621C21.0491 12.5736 20.7894 12.6793 20.4838 12.6793H20.4037V20.2435C20.4037 20.6119 20.2725 20.9273 20.0101 21.1896C19.7477 21.452 19.4324 21.5832 19.0639 21.5832H8.93571C8.56728 21.5832 8.25189 21.452 7.98952 21.1896C7.72716 20.9273 7.59598 20.6119 7.59598 20.2435ZM15.7786 6.51591C15.4499 6.51591 15.1744 6.6271 14.952 6.84949C14.7296 7.07188 14.6184 7.34744 14.6184 7.67618C14.6184 8.00493 14.7296 8.28049 14.952 8.50287C15.1744 8.72526 15.4499 8.83645 15.7786 8.83645C16.1074 8.83645 16.383 8.72526 16.6053 8.50287C16.8277 8.28049 16.9389 8.00493 16.9389 7.67618C16.9389 7.34744 16.8277 7.07188 16.6053 6.84949C16.383 6.6271 16.1074 6.51591 15.7786 6.51591ZM10.9645 7.67618C10.9645 8.00493 11.0757 8.28049 11.2981 8.50287C11.5205 8.72526 11.7961 8.83645 12.1248 8.83645C12.4536 8.83645 12.7291 8.72526 12.9515 8.50287C13.1739 8.28049 13.2851 8.00493 13.2851 7.67618C13.2851 7.34744 13.1739 7.07188 12.9515 6.84949C12.7291 6.6271 12.4536 6.51591 12.1248 6.51591C11.7961 6.51591 11.5205 6.6271 11.2981 6.84949C11.0757 7.07188 10.9645 7.34744 10.9645 7.67618ZM7.49982 9.91976V11.5961H13.4582V9.91976H7.49982ZM13.4582 20.4999V12.6793H8.67927V20.2435C8.67927 20.3182 8.70332 20.3797 8.7514 20.4278C8.79948 20.4758 8.86092 20.4999 8.93571 20.4999H13.4582ZM14.5415 20.4999H19.0639C19.1387 20.4999 19.2002 20.4758 19.2482 20.4278C19.2963 20.3797 19.3204 20.3182 19.3204 20.2435V12.6793H14.5415V20.4999ZM20.4998 11.5961V9.91976H14.5415V11.5961H20.4998Z" fill="#303030"/>
</g>
</svg>
