<svg width="16" height="16" viewBox="0 0 16 16" fill="none" xmlns="http://www.w3.org/2000/svg">
<mask id="mask0_23_5839" style="mask-type:alpha" maskUnits="userSpaceOnUse" x="0" y="0" width="16" height="16">
<rect width="16" height="16" fill="#D9D9D9"/>
</mask>
<g mask="url(#mask0_23_5839)">
<path d="M7.08987 8.9819L5.91318 7.82282C5.81581 7.72543 5.711 7.67562 5.59874 7.67337C5.48648 7.6711 5.37941 7.72092 5.27752 7.82282C5.17564 7.9247 5.1247 8.03357 5.1247 8.14943C5.1247 8.26528 5.17564 8.37415 5.27752 8.47604L6.47111 9.89616C6.58652 10.0116 6.9438 10.0693 7.08987 10.0693C7.23593 10.0693 7.36667 10.0116 7.48208 9.89616L10.7091 6.66911C10.8065 6.57174 10.8563 6.46399 10.8586 6.34587C10.8608 6.22775 10.811 6.11775 10.7091 6.01587C10.6073 5.91398 10.5013 5.86304 10.3913 5.86304C10.2813 5.86304 10.1754 5.91398 10.0735 6.01587L7.08987 8.9819ZM8.00128 14.4C7.12407 14.4 6.2965 14.2334 5.51856 13.9003C4.74061 13.5672 4.05969 13.1088 3.4758 12.5252C2.89189 11.9415 2.4333 11.2609 2.10002 10.4833C1.76674 9.70574 1.6001 8.87836 1.6001 8.00115C1.6001 7.11223 1.76666 6.28173 2.09979 5.50965C2.43292 4.73756 2.8913 4.05956 3.47492 3.47567C4.05855 2.89177 4.73916 2.43318 5.51675 2.0999C6.29433 1.76662 7.12172 1.59998 7.99892 1.59998C8.88784 1.59998 9.71835 1.76654 10.4904 2.09967C11.2625 2.4328 11.9405 2.89117 12.5244 3.47479C13.1083 4.05843 13.5669 4.73611 13.9002 5.50784C14.2335 6.27956 14.4001 7.10988 14.4001 7.9988C14.4001 8.876 14.2335 9.70357 13.9004 10.4815C13.5673 11.2595 13.1089 11.9404 12.5253 12.5243C11.9416 13.1082 11.264 13.5668 10.4922 13.9001C9.72052 14.2333 8.8902 14.4 8.00128 14.4Z" fill="#4CAE3D"/>
</g>
</svg>
