<svg width="28" height="28" viewBox="0 0 28 28" fill="none" xmlns="http://www.w3.org/2000/svg">
<mask id="mask0_17_43627" style="mask-type:alpha" maskUnits="userSpaceOnUse" x="4" y="4" width="20" height="20">
<rect x="4" y="4" width="20" height="20" fill="#D9D9D9"/>
</mask>
<g mask="url(#mask0_17_43627)">
<path d="M12.6601 21.487C12.2917 21.487 11.9763 21.3558 11.7139 21.0934C11.4516 20.8311 11.3204 20.5157 11.3204 20.1473V18.6248C11.3204 18.4714 11.3719 18.3427 11.4749 18.2389C11.578 18.1351 11.7056 18.0832 11.8579 18.0832C12.0102 18.0832 12.1393 18.1351 12.245 18.2389C12.3508 18.3427 12.4037 18.4714 12.4037 18.6248V20.1473C12.4037 20.222 12.4277 20.2835 12.4758 20.3315C12.5239 20.3796 12.5853 20.4037 12.6601 20.4037H20.1473C20.222 20.4037 20.2835 20.3796 20.3315 20.3315C20.3796 20.2835 20.4037 20.222 20.4037 20.1473V12.6601C20.4037 12.5853 20.3796 12.5239 20.3315 12.4758C20.2835 12.4277 20.222 12.4037 20.1473 12.4037H18.6248C18.4714 12.4037 18.3427 12.3522 18.2389 12.2491C18.1351 12.1461 18.0832 12.0184 18.0832 11.8661C18.0832 11.7138 18.1351 11.5848 18.2389 11.479C18.3427 11.3733 18.4714 11.3204 18.6248 11.3204H20.1473C20.5157 11.3204 20.8311 11.4516 21.0934 11.7139C21.3558 11.9763 21.487 12.2917 21.487 12.6601V20.1473C21.487 20.5157 21.3558 20.8311 21.0934 21.0934C20.8311 21.3558 20.5157 21.487 20.1473 21.487H12.6601ZM11.6022 16.6793C10.1878 16.6793 8.98598 16.1867 7.99667 15.2015C7.00736 14.2163 6.5127 13.0165 6.5127 11.6022C6.5127 10.1878 7.0053 8.98598 7.99051 7.99667C8.97572 7.00736 10.1755 6.5127 11.5898 6.5127C13.0042 6.5127 14.206 7.0053 15.1953 7.99051C16.1846 8.97572 16.6793 10.1755 16.6793 11.5898C16.6793 13.0042 16.1867 14.206 15.2015 15.1953C14.2163 16.1846 13.0165 16.6793 11.6022 16.6793ZM11.6007 15.596C12.7087 15.596 13.6516 15.2055 14.4293 14.4246C15.2071 13.6437 15.596 12.6993 15.596 11.5913C15.596 10.4833 15.2055 9.54045 14.4246 8.76268C13.6437 7.9849 12.6993 7.59601 11.5913 7.59601C10.4833 7.59601 9.54045 7.98647 8.76267 8.76738C7.9849 9.5483 7.59601 10.4927 7.59601 11.6007C7.59601 12.7087 7.98647 13.6516 8.76738 14.4293C9.5483 15.2071 10.4927 15.596 11.6007 15.596Z" fill="#303030"/>
</g>
</svg>
