<svg width="16" height="16" viewBox="0 0 16 16" fill="none" xmlns="http://www.w3.org/2000/svg">
<mask id="mask0_23_5848" style="mask-type:alpha" maskUnits="userSpaceOnUse" x="0" y="0" width="16" height="16">
<rect width="16" height="16" fill="#D9D9D9"/>
</mask>
<g mask="url(#mask0_23_5848)">
<path d="M8.0001 8.65316L10.1613 10.8146C10.2587 10.9119 10.3665 10.9587 10.4847 10.9552C10.6027 10.9516 10.7127 10.8988 10.8147 10.797C10.9166 10.695 10.9675 10.5861 10.9675 10.4703C10.9675 10.3545 10.9166 10.2459 10.8147 10.1445L8.65328 7.99118L10.8147 5.83787C10.912 5.74105 10.9618 5.63356 10.9641 5.5154C10.9664 5.39737 10.9166 5.28736 10.8147 5.18538C10.7127 5.08352 10.6038 5.03259 10.488 5.03259C10.3722 5.03259 10.2633 5.08352 10.1613 5.18538L8.0001 7.34679L5.83887 5.18538C5.74146 5.08809 5.63661 5.03828 5.52432 5.03593C5.41214 5.0337 5.30506 5.08352 5.20309 5.18538C5.10123 5.28736 5.0503 5.39625 5.0503 5.51206C5.0503 5.62787 5.10076 5.73677 5.20168 5.83875L7.34691 7.99998L5.1855 10.1612C5.08822 10.2586 5.04133 10.3635 5.04485 10.4758C5.04848 10.5879 5.10123 10.695 5.20309 10.797C5.30506 10.8988 5.41396 10.9498 5.52977 10.9498C5.64558 10.9498 5.75394 10.8993 5.85487 10.7984L8.0001 8.65316ZM8.00608 14.4C7.12567 14.4 6.29648 14.2334 5.51852 13.9003C4.74055 13.5672 4.05964 13.1088 3.47579 12.5252C2.89194 11.9415 2.43333 11.2612 2.09997 10.484C1.76672 9.70699 1.6001 8.87669 1.6001 7.99312C1.6001 7.10954 1.76666 6.2817 2.09979 5.5096C2.43292 4.7375 2.89129 4.05952 3.47491 3.47567C4.05853 2.89181 4.73891 2.43321 5.51605 2.09984C6.29308 1.7666 7.12338 1.59998 8.00696 1.59998C8.89053 1.59998 9.71837 1.76654 10.4905 2.09967C11.2626 2.4328 11.9406 2.89117 12.5244 3.47479C13.1083 4.05841 13.5669 4.73738 13.9002 5.51171C14.2335 6.28616 14.4001 7.11359 14.4001 7.994C14.4001 8.87441 14.2335 9.70359 13.9004 10.4816C13.5673 11.2595 13.1089 11.9404 12.5253 12.5243C11.9417 13.1081 11.2627 13.5667 10.4884 13.9001C9.71392 14.2334 8.88649 14.4 8.00608 14.4Z" fill="#303030"/>
</g>
</svg>
