<svg width="28" height="28" viewBox="0 0 28 28" fill="none" xmlns="http://www.w3.org/2000/svg">
<mask id="mask0_17_43615" style="mask-type:alpha" maskUnits="userSpaceOnUse" x="4" y="4" width="20" height="20">
<rect x="4" y="4" width="20" height="20" fill="#D9D9D9"/>
</mask>
<g mask="url(#mask0_17_43615)">
<path d="M8.75625 21.5831C8.38114 21.5831 8.06407 21.4511 7.80505 21.1873C7.54602 20.9234 7.4165 20.6087 7.4165 20.2433V9.75621C7.4165 9.39082 7.54602 9.07618 7.80505 8.81229C8.06407 8.5484 8.38114 8.41646 8.75625 8.41646H10.5768V6.87798C10.5768 6.71891 10.6295 6.5862 10.735 6.47983C10.8406 6.37349 10.9722 6.32031 11.1301 6.32031C11.2879 6.32031 11.421 6.37349 11.5295 6.47983C11.6379 6.5862 11.6921 6.71891 11.6921 6.87798V8.41646H16.3395V6.86196C16.3395 6.70822 16.391 6.57951 16.4938 6.47583C16.5966 6.37215 16.7243 6.32031 16.8768 6.32031C17.0293 6.32031 17.1584 6.37215 17.2642 6.47583C17.37 6.57951 17.4229 6.70822 17.4229 6.86196V8.41646H19.2434C19.6185 8.41646 19.9356 8.5484 20.1946 8.81229C20.4536 9.07618 20.5831 9.39082 20.5831 9.75621V20.2433C20.5831 20.6087 20.4536 20.9234 20.1946 21.1873C19.9356 21.4511 19.6185 21.5831 19.2434 21.5831H8.75625ZM8.75625 20.4998H19.2434C19.3075 20.4998 19.3663 20.4731 19.4197 20.4196C19.4731 20.3662 19.4998 20.3074 19.4998 20.2433V13.2562H8.49982V20.2433C8.49982 20.3074 8.52652 20.3662 8.57994 20.4196C8.63337 20.4731 8.69214 20.4998 8.75625 20.4998ZM8.49982 12.1729H19.4998V9.75621C19.4998 9.6921 19.4731 9.63333 19.4197 9.5799C19.3663 9.52648 19.3075 9.49977 19.2434 9.49977H8.75625C8.69214 9.49977 8.63337 9.52648 8.57994 9.5799C8.52652 9.63333 8.49982 9.6921 8.49982 9.75621V12.1729ZM14.0042 16.0639C13.825 16.0639 13.6705 16.0004 13.5407 15.8736C13.4109 15.7467 13.346 15.5936 13.346 15.4144C13.346 15.2352 13.4094 15.0807 13.5363 14.9509C13.6632 14.8211 13.8162 14.7562 13.9954 14.7562C14.1746 14.7562 14.3291 14.8196 14.4589 14.9465C14.5887 15.0734 14.6536 15.2265 14.6536 15.4056C14.6536 15.5849 14.5902 15.7394 14.4633 15.8692C14.3364 15.999 14.1834 16.0639 14.0042 16.0639ZM10.7542 16.0639C10.575 16.0639 10.4205 16.0004 10.2907 15.8736C10.1609 15.7467 10.096 15.5936 10.096 15.4144C10.096 15.2352 10.1594 15.0807 10.2863 14.9509C10.4132 14.8211 10.5662 14.7562 10.7454 14.7562C10.9246 14.7562 11.0791 14.8196 11.2089 14.9465C11.3387 15.0734 11.4036 15.2265 11.4036 15.4056C11.4036 15.5849 11.3402 15.7394 11.2133 15.8692C11.0864 15.999 10.9334 16.0639 10.7542 16.0639ZM17.2542 16.0639C17.075 16.0639 16.9205 16.0004 16.7907 15.8736C16.6609 15.7467 16.596 15.5936 16.596 15.4144C16.596 15.2352 16.6594 15.0807 16.7863 14.9509C16.9132 14.8211 17.0662 14.7562 17.2454 14.7562C17.4246 14.7562 17.5791 14.8196 17.7089 14.9465C17.8387 15.0734 17.9036 15.2265 17.9036 15.4056C17.9036 15.5849 17.8402 15.7394 17.7133 15.8692C17.5864 15.999 17.4334 16.0639 17.2542 16.0639ZM14.0042 18.9998C13.825 18.9998 13.6705 18.9363 13.5407 18.8094C13.4109 18.6826 13.346 18.5295 13.346 18.3503C13.346 18.1711 13.4094 18.0166 13.5363 17.8868C13.6632 17.757 13.8162 17.6921 13.9954 17.6921C14.1746 17.6921 14.3291 17.7555 14.4589 17.8824C14.5887 18.0093 14.6536 18.1623 14.6536 18.3415C14.6536 18.5208 14.5902 18.6753 14.4633 18.8051C14.3364 18.9349 14.1834 18.9998 14.0042 18.9998ZM10.7542 18.9998C10.575 18.9998 10.4205 18.9363 10.2907 18.8094C10.1609 18.6826 10.096 18.5295 10.096 18.3503C10.096 18.1711 10.1594 18.0166 10.2863 17.8868C10.4132 17.757 10.5662 17.6921 10.7454 17.6921C10.9246 17.6921 11.0791 17.7555 11.2089 17.8824C11.3387 18.0093 11.4036 18.1623 11.4036 18.3415C11.4036 18.5208 11.3402 18.6753 11.2133 18.8051C11.0864 18.9349 10.9334 18.9998 10.7542 18.9998ZM17.2542 18.9998C17.075 18.9998 16.9205 18.9363 16.7907 18.8094C16.6609 18.6826 16.596 18.5295 16.596 18.3503C16.596 18.1711 16.6594 18.0166 16.7863 17.8868C16.9132 17.757 17.0662 17.6921 17.2454 17.6921C17.4246 17.6921 17.5791 17.7555 17.7089 17.8824C17.8387 18.0093 17.9036 18.1623 17.9036 18.3415C17.9036 18.5208 17.8402 18.6753 17.7133 18.8051C17.5864 18.9349 17.4334 18.9998 17.2542 18.9998Z" fill="#303030"/>
</g>
</svg>
