<svg width="28" height="28" viewBox="0 0 28 28" fill="none" xmlns="http://www.w3.org/2000/svg">
<mask id="mask0_17_43633" style="mask-type:alpha" maskUnits="userSpaceOnUse" x="4" y="4" width="20" height="20">
<rect x="4" y="4" width="20" height="20" fill="#D9D9D9"/>
</mask>
<g mask="url(#mask0_17_43633)">
<path d="M14.5415 13.4587H20.4742C20.3556 11.8646 19.7357 10.5057 18.6144 9.38172C17.4931 8.25778 16.1355 7.63919 14.5415 7.52595V13.4587ZM13.4582 20.4747V7.52595C11.7819 7.66697 10.3697 8.35393 9.22178 9.58685C8.0738 10.8197 7.49982 12.2874 7.49982 13.9899C7.49982 15.6923 8.0738 17.1635 9.22178 18.4033C10.3697 19.6432 11.7819 20.3336 13.4582 20.4747ZM14.5415 20.4747C16.1216 20.3422 17.4744 19.7118 18.6 18.5836C19.7255 17.4554 20.3502 16.1082 20.4742 14.542H14.5415V20.4747ZM14.0108 21.5836C12.9639 21.5836 11.9798 21.3863 11.0586 20.9915C10.1374 20.5968 9.33085 20.0537 8.639 19.3622C7.94714 18.6706 7.40376 17.8645 7.00886 16.9437C6.61396 16.0229 6.4165 15.0391 6.4165 13.9922C6.4165 12.9452 6.61387 11.9609 7.00859 11.0391C7.40331 10.1173 7.94643 9.31398 8.63796 8.62908C9.3295 7.94416 10.1357 7.40425 11.0564 7.00935C11.9772 6.61444 12.9611 6.41699 14.008 6.41699C15.0549 6.41699 16.0371 6.61631 16.9547 7.01495C17.8723 7.41358 18.674 7.95619 19.3598 8.64278C20.0456 9.3294 20.5876 10.1317 20.9858 11.0496C21.384 11.9675 21.5831 12.952 21.5831 14.0028C21.5831 15.0411 21.3843 16.0211 20.9867 16.9429C20.5891 17.8647 20.0495 18.6697 19.3679 19.358C18.6863 20.0462 17.8847 20.5892 16.9633 20.987C16.0419 21.3847 15.0577 21.5836 14.0108 21.5836Z" fill="#303030"/>
</g>
</svg>
