<svg width="28" height="28" viewBox="0 0 28 28" fill="none" xmlns="http://www.w3.org/2000/svg">
<mask id="mask0_17_43634" style="mask-type:alpha" maskUnits="userSpaceOnUse" x="4" y="4" width="20" height="20">
<rect x="4" y="4" width="20" height="20" fill="#D9D9D9"/>
</mask>
<g mask="url(#mask0_17_43634)">
<path d="M7.99982 19.5003H11.2803V13.0003H7.99982V19.5003ZM12.3636 19.5003H15.636V8.50031H12.3636V19.5003ZM16.7193 19.5003H19.9998V14.5003H16.7193V19.5003ZM6.9165 19.2439V13.2567C6.9165 12.8883 7.04752 12.5729 7.30955 12.3106C7.57157 12.0482 7.88656 11.917 8.2545 11.917H11.2751V8.75674C11.2751 8.38831 11.4061 8.07292 11.6681 7.81056C11.9301 7.54818 12.2455 7.41699 12.6143 7.41699H15.3762C15.7449 7.41699 16.0606 7.54818 16.3232 7.81056C16.5857 8.07292 16.717 8.38831 16.717 8.75674V13.417H19.7434C20.1118 13.417 20.4272 13.5482 20.6896 13.8106C20.9519 14.0729 21.0831 14.3883 21.0831 14.7567V19.2439C21.0831 19.6123 20.9519 19.9277 20.6894 20.1901C20.4269 20.4524 20.1113 20.5836 19.7427 20.5836H8.25027C7.88166 20.5836 7.56722 20.4524 7.30694 20.1901C7.04665 19.9277 6.9165 19.6123 6.9165 19.2439Z" fill="#303030"/>
</g>
</svg>
