<svg width="16" height="16" viewBox="0 0 16 16" fill="none" xmlns="http://www.w3.org/2000/svg">
<path fill-rule="evenodd" clip-rule="evenodd" d="M6.75781 3.61719C6.75781 4.30273 7.32031 4.87109 8 4.87109C8.69727 4.87109 9.24219 4.32031 9.24219 3.61719C9.24219 2.92578 8.68555 2.36914 8 2.36914C7.32031 2.36914 6.75781 2.92578 6.75781 3.61719ZM6.75781 7.99414C6.75781 8.67383 7.32031 9.23047 8 9.23047C8.69727 9.23047 9.24219 8.68555 9.24219 7.99414C9.24219 7.30859 8.68555 6.75195 8 6.75195C7.32031 6.75195 6.75781 7.30859 6.75781 7.99414ZM8 13.6191C7.32031 13.6191 6.75781 13.0508 6.75781 12.3711C6.75781 11.6738 7.32031 11.1172 8 11.1172C8.68555 11.1172 9.24219 11.6738 9.24219 12.3711C9.24219 13.0684 8.69727 13.6191 8 13.6191Z" fill="#212121"/>
</svg>
