<svg width="16" height="16" viewBox="0 0 16 16" fill="none" xmlns="http://www.w3.org/2000/svg">
<mask id="mask0_32_7483" style="mask-type:alpha" maskUnits="userSpaceOnUse" x="0" y="0" width="16" height="16">
<rect width="16" height="16" fill="#D9D9D9"/>
</mask>
<g mask="url(#mask0_32_7483)">
<path d="M7.43692 9.43334L3.81392 8.8525C3.59081 8.81239 3.44742 8.68356 3.38376 8.466C3.32009 8.24845 3.37631 8.06489 3.55242 7.91534L9.97159 2.0385C10.0143 1.99572 10.0621 1.96645 10.1151 1.95067C10.1681 1.93489 10.2408 1.927 10.3331 1.927C10.4818 1.927 10.5971 1.99172 10.6793 2.12117C10.7613 2.25061 10.7685 2.38289 10.7011 2.518L8.54326 6.57317L12.1793 7.15384C12.4023 7.19406 12.5467 7.32184 12.6126 7.53717C12.6784 7.75261 12.6232 7.93511 12.4471 8.08467L6.02792 13.968C5.98526 14.0107 5.93742 14.0388 5.88442 14.0525C5.83142 14.0662 5.75876 14.073 5.66642 14.073C5.51776 14.073 5.40453 14.0083 5.32676 13.8788C5.24898 13.7494 5.2417 13.6193 5.30492 13.4885L7.43692 9.43334ZM7.15359 11.7308L11.3883 7.891L7.25626 7.22684L8.86526 4.25L4.61126 8.11284L8.74326 8.78584L7.15359 11.7308Z" fill="#4CAE3D"/>
</g>
</svg>
