<svg width="20" height="20" viewBox="0 0 20 20" fill="none" xmlns="http://www.w3.org/2000/svg">
<mask id="mask0_13_1303" style="mask-type:alpha" maskUnits="userSpaceOnUse" x="0" y="0" width="20" height="20">
<rect width="20" height="20" fill="#D9D9D9"/>
</mask>
<g mask="url(#mask0_13_1303)">
<path d="M9.19046 14.5833C9.01338 14.5833 8.86498 14.5234 8.74525 14.4035C8.62539 14.2836 8.56546 14.1352 8.56546 13.9581C8.56546 13.7809 8.62539 13.6325 8.74525 13.5129C8.86498 13.3932 9.01338 13.3333 9.19046 13.3333H10.8011C10.9782 13.3333 11.1266 13.3932 11.2465 13.5131C11.3662 13.6329 11.4261 13.7814 11.4261 13.9585C11.4261 14.1357 11.3662 14.2841 11.2465 14.4037C11.1266 14.5234 10.9782 14.5833 10.8011 14.5833H9.19046ZM5.9613 10.625C5.78421 10.625 5.63581 10.565 5.51609 10.4452C5.39637 10.3253 5.3365 10.1768 5.3365 9.99975C5.3365 9.82253 5.39637 9.67413 5.51609 9.55454C5.63581 9.43482 5.78421 9.37496 5.9613 9.37496H14.0303C14.2073 9.37496 14.3558 9.43489 14.4757 9.55475C14.5954 9.67461 14.6553 9.82308 14.6553 10.0002C14.6553 10.1774 14.5954 10.3258 14.4757 10.4454C14.3558 10.5651 14.2073 10.625 14.0303 10.625H5.9613ZM3.5415 6.66663C3.36442 6.66663 3.21602 6.6067 3.0963 6.48683C2.97643 6.36697 2.9165 6.2185 2.9165 6.04142C2.9165 5.8642 2.97643 5.71579 3.0963 5.59621C3.21602 5.47649 3.36442 5.41663 3.5415 5.41663H16.4582C16.6353 5.41663 16.7837 5.47656 16.9034 5.59642C17.0232 5.71628 17.0832 5.86475 17.0832 6.04183C17.0832 6.21906 17.0232 6.36746 16.9034 6.48704C16.7837 6.60677 16.6353 6.66663 16.4582 6.66663H3.5415Z" fill="#303030"/>
</g>
</svg>
