<svg width="20" height="20" viewBox="0 0 20 20" fill="none" xmlns="http://www.w3.org/2000/svg">
<mask id="mask0_25_6648" style="mask-type:alpha" maskUnits="userSpaceOnUse" x="0" y="0" width="20" height="20">
<rect width="20" height="20" fill="#D9D9D9"/>
</mask>
<g mask="url(#mask0_25_6648)">
<path d="M4.1665 9.16663C3.82567 9.16663 3.53213 9.0435 3.28588 8.79725C3.03963 8.551 2.9165 8.25746 2.9165 7.91663V4.16663C2.9165 3.82579 3.03963 3.53225 3.28588 3.286C3.53213 3.03975 3.82567 2.91663 4.1665 2.91663H7.9165C8.25734 2.91663 8.55088 3.03975 8.79713 3.286C9.04338 3.53225 9.1665 3.82579 9.1665 4.16663V7.91663C9.1665 8.25746 9.04338 8.551 8.79713 8.79725C8.55088 9.0435 8.25734 9.16663 7.9165 9.16663H4.1665ZM4.1665 17.0833C3.82567 17.0833 3.53213 16.9602 3.28588 16.7139C3.03963 16.4677 2.9165 16.1741 2.9165 15.8333V12.0833C2.9165 11.7425 3.03963 11.4489 3.28588 11.2027C3.53213 10.9564 3.82567 10.8333 4.1665 10.8333H7.9165C8.25734 10.8333 8.55088 10.9564 8.79713 11.2027C9.04338 11.4489 9.1665 11.7425 9.1665 12.0833V15.8333C9.1665 16.1741 9.04338 16.4677 8.79713 16.7139C8.55088 16.9602 8.25734 17.0833 7.9165 17.0833H4.1665ZM12.0832 9.16663C11.7423 9.16663 11.4488 9.0435 11.2025 8.79725C10.9563 8.551 10.8332 8.25746 10.8332 7.91663V4.16663C10.8332 3.82579 10.9563 3.53225 11.2025 3.286C11.4488 3.03975 11.7423 2.91663 12.0832 2.91663H15.8332C16.174 2.91663 16.4675 3.03975 16.7138 3.286C16.96 3.53225 17.0832 3.82579 17.0832 4.16663V7.91663C17.0832 8.25746 16.96 8.551 16.7138 8.79725C16.4675 9.0435 16.174 9.16663 15.8332 9.16663H12.0832ZM12.0832 17.0833C11.7423 17.0833 11.4488 16.9602 11.2025 16.7139C10.9563 16.4677 10.8332 16.1741 10.8332 15.8333V12.0833C10.8332 11.7425 10.9563 11.4489 11.2025 11.2027C11.4488 10.9564 11.7423 10.8333 12.0832 10.8333H15.8332C16.174 10.8333 16.4675 10.9564 16.7138 11.2027C16.96 11.4489 17.0832 11.7425 17.0832 12.0833V15.8333C17.0832 16.1741 16.96 16.4677 16.7138 16.7139C16.4675 16.9602 16.174 17.0833 15.8332 17.0833H12.0832ZM4.1665 7.91663H7.9165V4.16663H4.1665V7.91663ZM12.0832 7.91663H15.8332V4.16663H12.0832V7.91663ZM12.0832 15.8333H15.8332V12.0833H12.0832V15.8333ZM4.1665 15.8333H7.9165V12.0833H4.1665V15.8333Z" fill="#303030"/>
</g>
</svg>
