<svg width="16" height="16" viewBox="0 0 16 16" fill="none" xmlns="http://www.w3.org/2000/svg">
<mask id="mask0_20_44036" style="mask-type:alpha" maskUnits="userSpaceOnUse" x="0" y="0" width="16" height="16">
<rect width="16" height="16" fill="#D9D9D9"/>
</mask>
<g mask="url(#mask0_20_44036)">
<path d="M7.99696 11.0336C8.1188 11.0336 8.22203 10.992 8.30664 10.909C8.39125 10.8259 8.43356 10.723 8.43356 10.6002V7.63356C8.43356 7.51079 8.39235 7.40788 8.30993 7.32483C8.2275 7.24177 8.12537 7.20024 8.00353 7.20024C7.88168 7.20024 7.77846 7.24177 7.69384 7.32483C7.60923 7.40788 7.56693 7.51079 7.56693 7.63356V10.6002C7.56693 10.723 7.60814 10.8259 7.69056 10.909C7.77298 10.992 7.87512 11.0336 7.99696 11.0336ZM7.99673 6.19256C8.12942 6.19256 8.24181 6.14769 8.33389 6.05794C8.42598 5.96819 8.47203 5.85697 8.47203 5.72429C8.47203 5.59162 8.42715 5.47923 8.33739 5.38713C8.24765 5.29504 8.13644 5.24899 8.00376 5.24899C7.87107 5.24899 7.75868 5.29387 7.66659 5.38363C7.5745 5.47338 7.52846 5.5846 7.52846 5.71728C7.52846 5.84995 7.57334 5.96234 7.66309 6.05443C7.75284 6.14652 7.86405 6.19256 7.99673 6.19256ZM8.00596 14.0669C7.17138 14.0669 6.38538 13.909 5.64796 13.5932C4.91053 13.2774 4.26507 12.843 3.71159 12.2897C3.1581 11.7365 2.7234 11.0916 2.40748 10.3549C2.09155 9.61832 1.93359 8.83125 1.93359 7.99373C1.93359 7.15619 2.09148 6.37149 2.40726 5.63963C2.72304 4.90775 3.15754 4.26507 3.71076 3.71159C4.26399 3.15811 4.90892 2.7234 5.64554 2.40748C6.38217 2.09156 7.16924 1.93359 8.00676 1.93359C8.84429 1.93359 9.62899 2.09148 10.3609 2.40726C11.0927 2.72304 11.7354 3.15754 12.2889 3.71076C12.8424 4.26399 13.2771 4.90762 13.593 5.64164C13.9089 6.37567 14.0669 7.15996 14.0669 7.99453C14.0669 8.82911 13.909 9.61511 13.5932 10.3525C13.2774 11.09 12.843 11.7354 12.2897 12.2889C11.7365 12.8424 11.0929 13.2771 10.3588 13.593C9.62482 13.9089 8.84053 14.0669 8.00596 14.0669ZM8.00024 13.2002C9.44469 13.2002 10.6725 12.6947 11.6836 11.6836C12.6947 10.6725 13.2002 9.44469 13.2002 8.00024C13.2002 6.5558 12.6947 5.32802 11.6836 4.31691C10.6725 3.3058 9.44469 2.80024 8.00024 2.80024C6.5558 2.80024 5.32802 3.3058 4.31691 4.31691C3.3058 5.32802 2.80024 6.5558 2.80024 8.00024C2.80024 9.44469 3.3058 10.6725 4.31691 11.6836C5.32802 12.6947 6.5558 13.2002 8.00024 13.2002Z" fill="#303030"/>
</g>
</svg>
