<svg width="20" height="20" viewBox="0 0 20 20" fill="none" xmlns="http://www.w3.org/2000/svg">
<mask id="mask0_421_670" style="mask-type:alpha" maskUnits="userSpaceOnUse" x="0" y="0" width="20" height="20">
<rect width="20" height="20" fill="#D9D9D9"/>
</mask>
<g mask="url(#mask0_421_670)">
<path d="M10 17.5833C8.45086 17.5833 7.13303 17.04 6.0465 15.9535C4.95996 14.8669 4.41669 13.5491 4.41669 12C4.41669 10.8686 4.7364 9.67975 5.37581 8.4335C6.01523 7.18725 6.90437 6.04596 8.04325 5.00964C8.38086 4.70088 8.72461 4.60472 9.0745 4.72118C9.42439 4.83763 9.59933 5.09403 9.59933 5.49039V5.65543C9.59933 6.1095 9.78924 6.51309 10.169 6.86618C10.5489 7.21928 10.9925 7.39583 11.5 7.39583C11.719 7.39583 11.9268 7.36511 12.1234 7.30368C12.32 7.24225 12.4872 7.15011 12.625 7.02725C12.7639 6.8873 12.9303 6.81145 13.1242 6.79968C13.3181 6.78793 13.4808 6.84616 13.6122 6.97437C14.2201 7.57587 14.7006 8.3272 15.0537 9.22837C15.4068 10.1295 15.5833 11.0534 15.5833 12C15.5833 13.5491 15.04 14.8669 13.9535 15.9535C12.867 17.04 11.5491 17.5833 10 17.5833ZM5.5 12C5.5 12.7425 5.68323 13.4337 6.04969 14.0737C6.41615 14.7137 6.93646 15.2553 7.61062 15.6987C7.54865 15.5673 7.50084 15.4362 7.46719 15.3053C7.43352 15.1744 7.41669 15.0518 7.41669 14.9375C7.41669 14.649 7.47331 14.3622 7.58656 14.0769C7.69981 13.7917 7.86007 13.5315 8.06733 13.2965L10 11.085L11.9407 13.2965C12.148 13.5315 12.3069 13.7917 12.4174 14.0769C12.528 14.3622 12.5833 14.649 12.5833 14.9375C12.5833 15.0657 12.5665 15.1952 12.5328 15.3261C12.4992 15.457 12.4513 15.5881 12.3894 15.7196C13.0358 15.3595 13.5491 14.8456 13.9295 14.1779C14.3098 13.5101 14.5 12.7842 14.5 12C14.5 11.2639 14.3785 10.5555 14.1354 9.87497C13.8924 9.19442 13.5417 8.56942 13.0833 7.99997C12.8472 8.15275 12.5937 8.27081 12.3229 8.35414C12.0521 8.43747 11.7778 8.47914 11.5 8.47914C10.7724 8.47914 10.1343 8.25692 9.58573 7.81247C9.03712 7.36803 8.69604 6.7863 8.5625 6.06729C7.5625 6.9925 6.80208 7.95911 6.28125 8.96712C5.76042 9.97513 5.5 10.9861 5.5 12ZM10 12.75L8.89583 14C8.77083 14.1528 8.67361 14.3125 8.60417 14.4791C8.53472 14.6458 8.5 14.8194 8.5 15C8.5 15.4166 8.64583 15.7708 8.9375 16.0625C9.22917 16.3541 9.58333 16.5 10 16.5C10.4167 16.5 10.7708 16.3541 11.0625 16.0625C11.3542 15.7708 11.5 15.4166 11.5 15C11.5 14.8194 11.4687 14.6458 11.4062 14.4791C11.3437 14.3125 11.2431 14.1528 11.1042 14L10 12.75Z" fill="#DE1B0C"/>
</g>
</svg>
