<svg width="20" height="20" viewBox="0 0 20 20" fill="none" xmlns="http://www.w3.org/2000/svg">
<mask id="mask0_13_1298" style="mask-type:alpha" maskUnits="userSpaceOnUse" x="0" y="0" width="20" height="20">
<rect width="20" height="20" fill="#D9D9D9"/>
</mask>
<g mask="url(#mask0_13_1298)">
<path d="M9.9954 15.391C9.69627 15.391 9.44168 15.2845 9.23161 15.0714C9.02154 14.8584 8.9165 14.6024 8.9165 14.3032C8.9165 14.0041 9.02301 13.7495 9.23602 13.5395C9.44904 13.3294 9.70511 13.2244 10.0042 13.2244C10.3034 13.2244 10.558 13.3309 10.768 13.5439C10.9781 13.7569 11.0831 14.013 11.0831 14.3121C11.0831 14.6112 10.9766 14.8658 10.7636 15.0759C10.5506 15.2859 10.2945 15.391 9.9954 15.391ZM9.9954 11.0833C9.69627 11.0833 9.44168 10.9768 9.23161 10.7638C9.02154 10.5508 8.9165 10.2947 8.9165 9.99557C8.9165 9.69645 9.02301 9.44185 9.23602 9.23178C9.44904 9.02171 9.70511 8.91668 10.0042 8.91668C10.3034 8.91668 10.558 9.02318 10.768 9.2362C10.9781 9.44921 11.0831 9.70528 11.0831 10.0044C11.0831 10.3035 10.9766 10.5581 10.7636 10.7682C10.5506 10.9783 10.2945 11.0833 9.9954 11.0833ZM9.9954 6.77561C9.69627 6.77561 9.44168 6.66911 9.23161 6.45609C9.02154 6.24308 8.9165 5.98701 8.9165 5.68788C8.9165 5.38876 9.02301 5.13416 9.23602 4.92409C9.44904 4.71404 9.70511 4.60901 10.0042 4.60901C10.3034 4.60901 10.558 4.71552 10.768 4.92853C10.9781 5.14154 11.0831 5.39761 11.0831 5.69674C11.0831 5.99586 10.9766 6.25045 10.7636 6.46051C10.5506 6.67058 10.2945 6.77561 9.9954 6.77561Z" fill="#303030"/>
</g>
</svg>
