<svg width="28" height="28" viewBox="0 0 28 28" fill="none" xmlns="http://www.w3.org/2000/svg">
<mask id="mask0_17_43516" style="mask-type:alpha" maskUnits="userSpaceOnUse" x="4" y="4" width="20" height="20">
<rect x="4" y="4" width="20" height="20" fill="#D9D9D9"/>
</mask>
<g mask="url(#mask0_17_43516)">
<path d="M13.9998 20.1574C15.5885 18.7674 16.8257 17.4127 17.7114 16.0933C18.5971 14.7738 19.0399 13.6104 19.0399 12.6029C19.0399 11.1392 18.5642 9.92152 17.6128 8.94983C16.6614 7.97813 15.4571 7.49228 13.9998 7.49228C12.5426 7.49228 11.3382 7.97813 10.3869 8.94983C9.43547 9.92152 8.95978 11.1392 8.95978 12.6029C8.95978 13.6104 9.40262 14.7738 10.2883 16.0933C11.174 17.4127 12.4112 18.7674 13.9998 20.1574ZM13.9998 21.2006C13.8513 21.2006 13.7133 21.176 13.5856 21.1269C13.4579 21.0777 13.3284 21.0013 13.197 20.8977C12.7963 20.5558 12.2945 20.0892 11.6914 19.4979C11.0883 18.9066 10.5009 18.2426 9.92936 17.5059C9.35778 16.7693 8.87274 15.98 8.47424 15.1381C8.07572 14.2962 7.87646 13.4512 7.87646 12.6029C7.87646 10.902 8.44644 9.44585 9.5864 8.23431C10.7263 7.02276 12.1975 6.41699 13.9998 6.41699C15.7883 6.41699 17.256 7.02276 18.4029 8.23431C19.5498 9.44585 20.1232 10.902 20.1232 12.6029C20.1232 13.4512 19.9205 14.2984 19.515 15.1446C19.1096 15.9907 18.6259 16.7834 18.0639 17.5228C17.5019 18.2621 16.9194 18.9226 16.3163 19.5043C15.7132 20.086 15.2114 20.5478 14.8107 20.8897C14.6812 20.9933 14.5514 21.0711 14.4214 21.1229C14.2913 21.1747 14.1508 21.2006 13.9998 21.2006ZM14.0013 13.8881C14.3742 13.8881 14.6905 13.7578 14.9502 13.4973C15.2098 13.2367 15.3396 12.92 15.3396 12.547C15.3396 12.174 15.2093 11.8577 14.9487 11.5981C14.6882 11.3385 14.3714 11.2087 13.9984 11.2087C13.6254 11.2087 13.3091 11.3389 13.0495 11.5995C12.7899 11.86 12.6601 12.1768 12.6601 12.5498C12.6601 12.9228 12.7904 13.2391 13.0509 13.4987C13.3115 13.7583 13.6283 13.8881 14.0013 13.8881Z" fill="#303030"/>
</g>
</svg>
