<svg width="28" height="28" viewBox="0 0 28 28" fill="none" xmlns="http://www.w3.org/2000/svg">
<mask id="mask0_17_43508" style="mask-type:alpha" maskUnits="userSpaceOnUse" x="4" y="4" width="20" height="20">
<rect x="4" y="4" width="20" height="20" fill="#D9D9D9"/>
</mask>
<g mask="url(#mask0_17_43508)">
<path d="M9.49982 19.5001H11.7883V15.218C11.7883 15.0282 11.8525 14.8691 11.9809 14.7407C12.1093 14.6124 12.2684 14.5482 12.4582 14.5482H15.5415C15.7313 14.5482 15.8904 14.6124 16.0188 14.7407C16.1471 14.8691 16.2113 15.0282 16.2113 15.218V19.5001H18.4998V12.3783C18.4998 12.3355 18.4905 12.2968 18.4718 12.2621C18.4531 12.2274 18.4277 12.1967 18.3956 12.1699L14.1521 8.97924C14.1093 8.94185 14.0586 8.92316 13.9998 8.92316C13.9411 8.92316 13.8903 8.94185 13.8476 8.97924L9.60398 12.1699C9.57194 12.1967 9.54657 12.2274 9.52786 12.2621C9.50916 12.2968 9.49982 12.3355 9.49982 12.3783V19.5001ZM8.4165 19.2501V12.3783C8.4165 12.1696 8.46291 11.972 8.55573 11.7853C8.64855 11.5986 8.78216 11.4363 8.95657 11.2982L13.2001 8.09947C13.4495 7.92638 13.7156 7.83984 13.9985 7.83984C14.2814 7.83984 14.5484 7.92638 14.7995 8.09947L19.0431 11.2982C19.2175 11.4363 19.3511 11.5986 19.4439 11.7853C19.5367 11.972 19.5831 12.1696 19.5831 12.3783V19.2501C19.5831 19.6138 19.4518 19.9269 19.1893 20.1895C18.9267 20.4521 18.6135 20.5834 18.2498 20.5834H15.7979C15.6081 20.5834 15.449 20.5192 15.3206 20.3908C15.1922 20.2624 15.128 20.1033 15.128 19.9135V15.6314H12.8716V19.9135C12.8716 20.1033 12.8074 20.2624 12.679 20.3908C12.5506 20.5192 12.3915 20.5834 12.2017 20.5834H9.74982C9.38609 20.5834 9.07295 20.4521 8.81038 20.1895C8.5478 19.9269 8.4165 19.6138 8.4165 19.2501Z" fill="#303030"/>
</g>
</svg>
