<svg width="28" height="28" viewBox="0 0 28 28" fill="none" xmlns="http://www.w3.org/2000/svg">
<mask id="mask0_17_43512" style="mask-type:alpha" maskUnits="userSpaceOnUse" x="4" y="4" width="20" height="20">
<rect x="4" y="4" width="20" height="20" fill="#D9D9D9"/>
</mask>
<g mask="url(#mask0_17_43512)">
<path d="M10.7454 13.1541C10.9246 13.1541 11.0791 13.0907 11.2089 12.9638C11.3387 12.8369 11.4036 12.6839 11.4036 12.5047C11.4036 12.3255 11.3402 12.171 11.2133 12.0412C11.0864 11.9114 10.9334 11.8465 10.7542 11.8465C10.575 11.8465 10.4205 11.9099 10.2907 12.0368C10.1609 12.1637 10.096 12.3167 10.096 12.4959C10.096 12.6751 10.1594 12.8296 10.2863 12.9594C10.4132 13.0892 10.5662 13.1541 10.7454 13.1541ZM13.9954 13.1541C14.1746 13.1541 14.3291 13.0907 14.4589 12.9638C14.5887 12.8369 14.6537 12.6839 14.6537 12.5047C14.6537 12.3255 14.5902 12.171 14.4633 12.0412C14.3364 11.9114 14.1834 11.8465 14.0042 11.8465C13.825 11.8465 13.6705 11.9099 13.5407 12.0368C13.4109 12.1637 13.346 12.3167 13.346 12.4959C13.346 12.6751 13.4094 12.8296 13.5363 12.9594C13.6632 13.0892 13.8162 13.1541 13.9954 13.1541ZM17.2454 13.1541C17.4246 13.1541 17.5791 13.0907 17.7089 12.9638C17.8387 12.8369 17.9037 12.6839 17.9037 12.5047C17.9037 12.3255 17.8402 12.171 17.7133 12.0412C17.5864 11.9114 17.4334 11.8465 17.2542 11.8465C17.075 11.8465 16.9205 11.9099 16.7907 12.0368C16.6609 12.1637 16.596 12.3167 16.596 12.4959C16.596 12.6751 16.6594 12.8296 16.7863 12.9594C16.9132 13.0892 17.0662 13.1541 17.2454 13.1541ZM9.03188 18.5836L7.55357 20.0619C7.34254 20.2729 7.10027 20.3211 6.82677 20.2065C6.55326 20.0919 6.4165 19.8853 6.4165 19.5868V7.75674C6.4165 7.38163 6.54602 7.06456 6.80505 6.80553C7.06407 6.54651 7.38114 6.41699 7.75625 6.41699H20.2434C20.6185 6.41699 20.9356 6.54651 21.1946 6.80553C21.4536 7.06456 21.5831 7.38163 21.5831 7.75674V17.2439C21.5831 17.619 21.4536 17.936 21.1946 18.1951C20.9356 18.4541 20.6185 18.5836 20.2434 18.5836H9.03188ZM8.58317 17.5003H20.2434C20.3075 17.5003 20.3663 17.4736 20.4197 17.4202C20.4731 17.3667 20.4998 17.308 20.4998 17.2439V7.75674C20.4998 7.69263 20.4731 7.63386 20.4197 7.58043C20.3663 7.52701 20.3075 7.50031 20.2434 7.50031H7.75625C7.69214 7.50031 7.63337 7.52701 7.57994 7.58043C7.52652 7.63386 7.49982 7.69263 7.49982 7.75674V18.5917L8.58317 17.5003Z" fill="#303030"/>
</g>
</svg>
