<svg width="16" height="16" viewBox="0 0 16 16" fill="none" xmlns="http://www.w3.org/2000/svg">
<mask id="mask0_23_5856" style="mask-type:alpha" maskUnits="userSpaceOnUse" x="0" y="0" width="16" height="16">
<rect width="16" height="16" fill="#D9D9D9"/>
</mask>
<g mask="url(#mask0_23_5856)">
<path fill-rule="evenodd" clip-rule="evenodd" d="M7.99889 14.4005C11.5329 14.4005 14.3977 11.5357 14.3977 8.0017C14.3977 4.46774 11.5329 1.60291 7.99889 1.60291C4.46494 1.60291 1.6001 4.46774 1.6001 8.0017C1.6001 11.5357 4.46494 14.4005 7.99889 14.4005ZM8.26064 8.31117V4.97167C8.26064 4.84072 8.21668 4.73094 8.12876 4.64235C8.04085 4.55376 7.93191 4.50946 7.80194 4.50946C7.67197 4.50946 7.56186 4.55376 7.47161 4.64235C7.38136 4.73094 7.33623 4.84072 7.33623 4.97167V8.47528C7.33623 8.55899 7.35173 8.63416 7.38272 8.70079C7.41371 8.76742 7.45656 8.82809 7.51127 8.8828L9.97964 11.3512C10.0799 11.4514 10.1898 11.4998 10.3092 11.4961C10.4286 11.4925 10.5399 11.4391 10.6429 11.3361C10.7459 11.2331 10.7974 11.123 10.7974 11.0059C10.7974 10.8887 10.7439 10.7772 10.6369 10.6712L8.26064 8.31117Z" fill="#1976D2"/>
</g>
</svg>
