<svg width="20" height="20" viewBox="0 0 20 20" fill="none" xmlns="http://www.w3.org/2000/svg">
<mask id="mask0_25_6652" style="mask-type:alpha" maskUnits="userSpaceOnUse" x="0" y="0" width="20" height="20">
<rect width="20" height="20" fill="#D9D9D9"/>
</mask>
<g mask="url(#mask0_25_6652)">
<path d="M15.4998 15.2436V12.7197H4.49984V15.2436C4.49984 15.3185 4.52387 15.3799 4.57192 15.428C4.61998 15.4761 4.68143 15.5001 4.7563 15.5001H15.2434C15.3182 15.5001 15.3797 15.4761 15.4278 15.428C15.4758 15.3799 15.4998 15.3185 15.4998 15.2436ZM15.4998 11.6363V8.36383H4.49984V11.6363H15.4998ZM15.4998 7.2805V4.75654C15.4998 4.68168 15.4758 4.62022 15.4278 4.57217C15.3797 4.52411 15.3182 4.50008 15.2434 4.50008H4.7563C4.68143 4.50008 4.61998 4.52411 4.57192 4.57217C4.52387 4.62022 4.49984 4.68168 4.49984 4.75654V7.2805H15.4998ZM4.7563 16.5834C4.39088 16.5834 4.07623 16.4515 3.81234 16.1876C3.54845 15.9237 3.4165 15.609 3.4165 15.2436V4.75654C3.4165 4.3814 3.54845 4.06432 3.81234 3.80529C4.07623 3.54626 4.39088 3.41675 4.7563 3.41675H15.2434C15.6185 3.41675 15.9356 3.54626 16.1946 3.80529C16.4537 4.06432 16.5832 4.3814 16.5832 4.75654V15.2436C16.5832 15.609 16.4537 15.9237 16.1946 16.1876C15.9356 16.4515 15.6185 16.5834 15.2434 16.5834H4.7563Z" fill="#303030"/>
</g>
</svg>
