<svg width="32" height="32" viewBox="0 0 32 32" fill="none" xmlns="http://www.w3.org/2000/svg">
<mask id="mask0_13_1243" style="mask-type:alpha" maskUnits="userSpaceOnUse" x="6" y="6" width="20" height="20">
<rect x="6" y="6" width="20" height="20" fill="#D9D9D9"/>
</mask>
<g mask="url(#mask0_13_1243)">
<circle cx="16" cy="16" r="2" stroke="#303030"/>
<path d="M15.2228 23.5833C15.0775 23.5833 14.9536 23.5445 14.851 23.4671C14.7484 23.3896 14.6817 23.2825 14.6507 23.1458L14.3222 21.3365C13.96 21.2061 13.5922 21.0389 13.2188 20.8349C12.8454 20.6308 12.5107 20.3963 12.2148 20.1313L10.5 20.7451C10.3772 20.7771 10.2495 20.771 10.117 20.7267C9.98455 20.6823 9.8868 20.6003 9.82377 20.4807L9.0305 19.1025C8.96747 18.9828 8.94611 18.8594 8.9664 18.7323C8.9867 18.6052 9.04546 18.4946 9.14267 18.4006L10.5161 17.2131C10.483 17.0197 10.4554 16.8223 10.4335 16.6209C10.4116 16.4195 10.4007 16.2152 10.4007 16.008C10.4007 15.806 10.4116 15.6057 10.4335 15.407C10.4554 15.2083 10.483 15.0015 10.5161 14.7868L9.14267 13.5993C9.04546 13.5053 8.98804 13.3934 8.9704 13.2636C8.95277 13.1338 8.97548 13.009 9.03852 12.8894L9.82377 11.5352C9.8868 11.4209 9.98455 11.3402 10.117 11.2932C10.2495 11.2462 10.3772 11.2388 10.5 11.2708L12.2068 11.8766C12.5187 11.6063 12.8547 11.3704 13.2148 11.169C13.5748 10.9676 13.9413 10.7991 14.3141 10.6634L14.6507 8.85411C14.6817 8.71737 14.7484 8.61027 14.851 8.53281C14.9536 8.45536 15.0775 8.41663 15.2228 8.41663H16.7773C16.9226 8.41663 17.0465 8.45536 17.149 8.53281C17.2516 8.61027 17.3184 8.71737 17.3494 8.85411L17.6779 10.6714C18.0668 10.8178 18.4319 10.9863 18.7733 11.177C19.1146 11.3678 19.4439 11.6009 19.7612 11.8766L21.508 11.2708C21.6309 11.2388 21.7586 11.2462 21.891 11.2932C22.0235 11.3402 22.1213 11.4209 22.1843 11.5352L22.9695 12.8974C23.0326 13.0171 23.0539 13.1404 23.0336 13.2676C23.0133 13.3947 22.9546 13.5053 22.8574 13.5993L21.4519 14.8108C21.4957 15.0149 21.5259 15.2136 21.5425 15.407C21.559 15.6004 21.5673 15.798 21.5673 15.9999C21.5673 16.1965 21.5577 16.3915 21.5385 16.5849C21.5192 16.7783 21.493 16.985 21.4599 17.2051L22.8414 18.4006C22.9386 18.4946 22.9987 18.6052 23.0216 18.7323C23.0446 18.8594 23.0246 18.9828 22.9615 19.1025L22.1843 20.4727C22.1213 20.5923 22.0222 20.6743 21.887 20.7187C21.7519 20.763 21.6229 20.7691 21.5 20.7371L19.7612 20.1233C19.4439 20.3989 19.1119 20.6348 18.7652 20.8308C18.4185 21.0269 18.0561 21.1928 17.6779 21.3284L17.3494 23.1458C17.3184 23.2825 17.2516 23.3896 17.149 23.4671C17.0465 23.5445 16.9226 23.5833 16.7773 23.5833H15.2228ZM15.625 22.4999H16.367L16.7709 20.4134C17.2933 20.3162 17.7757 20.141 18.218 19.8878C18.6603 19.6346 19.0588 19.2986 19.4135 18.8798L21.4215 19.5624L21.8045 18.9374L20.2051 17.5336C20.2885 17.2761 20.3531 17.0229 20.3991 16.774C20.445 16.5251 20.468 16.267 20.468 15.9999C20.468 15.7275 20.445 15.4695 20.3991 15.2259C20.3531 14.9823 20.2885 14.7345 20.2051 14.4823L21.8205 13.0624L21.4375 12.4374L19.4055 13.1121C19.0988 12.7307 18.7057 12.4014 18.226 12.1241C17.7463 11.8469 17.2586 11.6677 16.7628 11.5865L16.375 9.49994H15.617L15.2372 11.5785C14.7148 11.665 14.2284 11.8362 13.7781 12.0921C13.3277 12.348 12.9252 12.688 12.5705 13.1121L10.5625 12.4374L10.1795 13.0624L11.7709 14.4663C11.6875 14.6917 11.6216 14.9356 11.5729 15.1979C11.5243 15.4601 11.5 15.7302 11.5 16.008C11.5 16.2804 11.5243 16.5451 11.5729 16.802C11.6216 17.059 11.6848 17.3028 11.7628 17.5336L10.1795 18.9374L10.5625 19.5624L12.5625 18.8958C12.9065 19.3039 13.3037 19.6359 13.754 19.8918C14.2043 20.1476 14.6961 20.3242 15.2292 20.4214L15.625 22.4999Z" fill="#303030"/>
</g>
</svg>
