<svg width="32" height="32" viewBox="0 0 32 32" fill="none" xmlns="http://www.w3.org/2000/svg">
<path d="M15.2857 16.7143V20.2857C15.2857 20.4881 15.3537 20.6577 15.4895 20.7946C15.6254 20.9315 15.7937 21 15.9946 21C16.1954 21 16.3656 20.9315 16.5051 20.7946C16.6445 20.6577 16.7143 20.4881 16.7143 20.2857V16.7143H20.2857C20.4881 16.7143 20.6577 16.6463 20.7946 16.5105C20.9315 16.3746 21 16.2063 21 16.0054C21 15.8046 20.9315 15.6344 20.7946 15.4949C20.6577 15.3555 20.4881 15.2857 20.2857 15.2857H16.7143V11.7143C16.7143 11.5119 16.6463 11.3423 16.5105 11.2054C16.3746 11.0685 16.2063 11 16.0054 11C15.8046 11 15.6344 11.0685 15.4949 11.2054C15.3555 11.3423 15.2857 11.5119 15.2857 11.7143V15.2857H11.7143C11.5119 15.2857 11.3423 15.3537 11.2054 15.4895C11.0685 15.6254 11 15.7937 11 15.9946C11 16.1954 11.0685 16.3656 11.2054 16.5051C11.3423 16.6445 11.5119 16.7143 11.7143 16.7143H15.2857ZM16.0094 26C14.6337 26 13.3381 25.7397 12.1226 25.2192C10.907 24.6987 9.84311 23.9825 8.93078 23.0706C8.01843 22.1587 7.30188 21.0956 6.78113 19.8814C6.26038 18.6672 6 17.3698 6 15.9893C6 14.6087 6.26026 13.3152 6.78077 12.1089C7.30129 10.9025 8.0175 9.84311 8.9294 8.93078C9.84133 8.01843 10.9044 7.30188 12.1186 6.78113C13.3328 6.26038 14.6302 6 16.0107 6C17.3913 6 18.6848 6.26026 19.8911 6.78077C21.0975 7.30129 22.1569 8.0175 23.0692 8.9294C23.9816 9.84133 24.6981 10.9023 25.2189 12.1122C25.7396 13.3221 26 14.6149 26 15.9906C26 17.3663 25.7397 18.6619 25.2192 19.8774C24.6987 21.093 23.9825 22.1569 23.0706 23.0692C22.1587 23.9816 21.0977 24.6981 19.8878 25.2189C18.6779 25.7396 17.3851 26 16.0094 26Z" fill="#1976D2"/>
</svg>
