<svg width="32" height="32" viewBox="0 0 32 32" fill="none" xmlns="http://www.w3.org/2000/svg">
<mask id="mask0_13_1239" style="mask-type:alpha" maskUnits="userSpaceOnUse" x="6" y="6" width="20" height="20">
<rect x="6" y="6" width="20" height="20" fill="#D9D9D9"/>
</mask>
<g mask="url(#mask0_13_1239)">
<path d="M16.03 20.6794C16.2556 20.6794 16.4469 20.6015 16.604 20.4457C16.761 20.2899 16.8395 20.0992 16.8395 19.8736C16.8395 19.648 16.7617 19.4567 16.6059 19.2996C16.4501 19.1426 16.2594 19.064 16.0338 19.064C15.8081 19.064 15.6168 19.1419 15.4598 19.2977C15.3027 19.4535 15.2242 19.6442 15.2242 19.8698C15.2242 20.0954 15.3021 20.2868 15.4579 20.4438C15.6137 20.6009 15.8044 20.6794 16.03 20.6794ZM16.007 23.5833C14.9637 23.5833 13.9812 23.3859 13.0595 22.9912C12.1377 22.5964 11.3309 22.0533 10.639 21.3618C9.94714 20.6703 9.40376 19.8641 9.00886 18.9433C8.61396 18.0225 8.4165 17.0387 8.4165 15.9918C8.4165 14.9449 8.61387 13.964 9.00859 13.0492C9.40331 12.1343 9.94643 11.331 10.638 10.6391C11.3295 9.94727 12.1357 9.40388 13.0564 9.00898C13.9772 8.61408 14.9611 8.41663 16.008 8.41663C17.0549 8.41663 18.0358 8.61399 18.9506 9.00871C19.8654 9.40343 20.6688 9.94656 21.3606 10.6381C22.0525 11.3296 22.5959 12.1342 22.9908 13.0517C23.3857 13.9692 23.5831 14.9496 23.5831 15.9928C23.5831 17.036 23.3858 18.0185 22.991 18.9403C22.5963 19.8621 22.0532 20.6689 21.3617 21.3608C20.6701 22.0526 19.8656 22.596 18.9481 22.9909C18.0305 23.3858 17.0502 23.5833 16.007 23.5833ZM15.9998 22.4999C17.8054 22.4999 19.3401 21.868 20.604 20.6041C21.8679 19.3402 22.4998 17.8055 22.4998 15.9999C22.4998 14.1944 21.8679 12.6597 20.604 11.3958C19.3401 10.1319 17.8054 9.49994 15.9998 9.49994C14.1943 9.49994 12.6595 10.1319 11.3956 11.3958C10.1318 12.6597 9.49982 14.1944 9.49982 15.9999C9.49982 17.8055 10.1318 19.3402 11.3956 20.6041C12.6595 21.868 14.1943 22.4999 15.9998 22.4999ZM16.0512 12.4326C16.44 12.4326 16.7765 12.5551 17.0607 12.8C17.3449 13.0449 17.487 13.3511 17.487 13.7184C17.487 14.0279 17.4007 14.3034 17.2282 14.5448C17.0556 14.7863 16.854 15.0042 16.6232 15.1987C16.3207 15.467 16.0509 15.7691 15.8138 16.1051C15.5767 16.441 15.4571 16.8135 15.455 17.2227C15.4496 17.3744 15.5001 17.4946 15.6065 17.5833C15.7128 17.6719 15.8369 17.7163 15.9787 17.7163C16.1306 17.7163 16.2586 17.6733 16.3628 17.5873C16.4669 17.5013 16.5345 17.3878 16.5655 17.2467C16.6349 16.9465 16.7602 16.6821 16.9413 16.4535C17.1224 16.2249 17.3186 16.0075 17.5298 15.8014C17.8335 15.5053 18.0847 15.1756 18.2834 14.8122C18.4822 14.4488 18.5815 14.0589 18.5815 13.6426C18.5815 12.9823 18.3353 12.4329 17.8428 11.9944C17.3502 11.5558 16.7609 11.3365 16.0746 11.3365C15.5846 11.3365 15.127 11.4498 14.7018 11.6763C14.2765 11.9027 13.9266 12.2214 13.6519 12.6321C13.5644 12.7577 13.5412 12.8954 13.5822 13.0452C13.6233 13.195 13.7174 13.3 13.8647 13.3601C14.0167 13.4309 14.166 13.4412 14.3123 13.391C14.4587 13.3408 14.581 13.2633 14.6793 13.1586C14.8481 12.9535 15.049 12.7812 15.2819 12.6418C15.5148 12.5023 15.7712 12.4326 16.0512 12.4326Z" fill="#303030"/>
</g>
</svg>
