<svg width="32" height="32" viewBox="0 0 32 32" fill="none" xmlns="http://www.w3.org/2000/svg">
<mask id="mask0_13_1255" style="mask-type:alpha" maskUnits="userSpaceOnUse" x="6" y="6" width="20" height="20">
<rect x="6" y="6" width="20" height="20" fill="#D9D9D9"/>
</mask>
<g mask="url(#mask0_13_1255)">
<path d="M9.95817 20.1954C9.8047 20.1954 9.67605 20.1439 9.57223 20.0409C9.46841 19.9379 9.4165 19.8102 9.4165 19.6579C9.4165 19.5056 9.46841 19.3765 9.57223 19.2708C9.67605 19.165 9.8047 19.1121 9.95817 19.1121H22.0415C22.1949 19.1121 22.3236 19.1636 22.4274 19.2667C22.5312 19.3697 22.5831 19.4974 22.5831 19.6497C22.5831 19.802 22.5312 19.931 22.4274 20.0368C22.3236 20.1426 22.1949 20.1954 22.0415 20.1954H9.95817ZM9.95817 16.5416C9.8047 16.5416 9.67605 16.4901 9.57223 16.387C9.46841 16.284 9.4165 16.1564 9.4165 16.004C9.4165 15.8517 9.46841 15.7227 9.57223 15.6169C9.67605 15.5112 9.8047 15.4583 9.95817 15.4583H22.0415C22.1949 15.4583 22.3236 15.5098 22.4274 15.6128C22.5312 15.7159 22.5831 15.8435 22.5831 15.9958C22.5831 16.1481 22.5312 16.2772 22.4274 16.3829C22.3236 16.4887 22.1949 16.5416 22.0415 16.5416H9.95817ZM9.95817 12.8878C9.8047 12.8878 9.67605 12.8362 9.57223 12.7332C9.46841 12.6302 9.4165 12.5025 9.4165 12.3502C9.4165 12.1979 9.46841 12.0689 9.57223 11.9631C9.67605 11.8573 9.8047 11.8044 9.95817 11.8044H22.0415C22.1949 11.8044 22.3236 11.856 22.4274 11.959C22.5312 12.062 22.5831 12.1897 22.5831 12.342C22.5831 12.4943 22.5312 12.6233 22.4274 12.7291C22.3236 12.8349 22.1949 12.8878 22.0415 12.8878H9.95817Z" fill="#303030"/>
</g>
</svg>
