<svg width="31" height="19" viewBox="0 0 31 19" fill="none" xmlns="http://www.w3.org/2000/svg">
<path d="M9.29102 0.448242H21.04C25.9239 0.448436 29.8826 4.40715 29.8828 9.29102C29.8828 14.175 25.924 18.1346 21.04 18.1348H9.29102C4.40703 18.1346 0.448242 14.175 0.448242 9.29102C0.448441 4.40716 4.40716 0.44844 9.29102 0.448242Z" fill="#0F7195"/>
<path d="M9.29102 0.448242H21.04C25.9239 0.448436 29.8826 4.40715 29.8828 9.29102C29.8828 14.175 25.924 18.1346 21.04 18.1348H9.29102C4.40703 18.1346 0.448242 14.175 0.448242 9.29102C0.448441 4.40716 4.40716 0.44844 9.29102 0.448242Z" stroke="white" stroke-width="0.895692"/>
<path d="M8.19743 5.42321L9.85061 8.62023L11.5082 5.42321H12.466L10.2705 9.41183V11.791H9.42638V9.41183L7.23089 5.42321H8.19743ZM12.6584 9.47744V9.37685C12.6584 9.03571 12.708 8.71936 12.8071 8.4278C12.9062 8.13332 13.0491 7.8782 13.2357 7.66244C13.4223 7.44376 13.6483 7.27465 13.9136 7.15511C14.1789 7.03265 14.4763 6.97143 14.8058 6.97143C15.1382 6.97143 15.437 7.03265 15.7023 7.15511C15.9706 7.27465 16.198 7.44376 16.3846 7.66244C16.5741 7.8782 16.7185 8.13332 16.8176 8.4278C16.9167 8.71936 16.9663 9.03571 16.9663 9.37685V9.47744C16.9663 9.81857 16.9167 10.1349 16.8176 10.4265C16.7185 10.7181 16.5741 10.9732 16.3846 11.1918C16.198 11.4076 15.972 11.5767 15.7067 11.6992C15.4443 11.8187 15.1469 11.8785 14.8145 11.8785C14.4821 11.8785 14.1833 11.8187 13.918 11.6992C13.6526 11.5767 13.4252 11.4076 13.2357 11.1918C13.0491 10.9732 12.9062 10.7181 12.8071 10.4265C12.708 10.1349 12.6584 9.81857 12.6584 9.47744ZM13.4675 9.37685V9.47744C13.4675 9.71361 13.4952 9.93665 13.5506 10.1466C13.606 10.3536 13.6891 10.5373 13.7999 10.6976C13.9136 10.858 14.055 10.9848 14.2241 11.0781C14.3932 11.1685 14.59 11.2137 14.8145 11.2137C15.0361 11.2137 15.23 11.1685 15.3962 11.0781C15.5653 10.9848 15.7053 10.858 15.8161 10.6976C15.9268 10.5373 16.0099 10.3536 16.0653 10.1466C16.1237 9.93665 16.1528 9.71361 16.1528 9.47744V9.37685C16.1528 9.14359 16.1237 8.92346 16.0653 8.71645C16.0099 8.50652 15.9254 8.32138 15.8117 8.16102C15.7009 7.99774 15.5609 7.86945 15.3918 7.77615C15.2256 7.68285 15.0303 7.6362 14.8058 7.6362C14.5842 7.6362 14.3888 7.68285 14.2197 7.77615C14.0535 7.86945 13.9136 7.99774 13.7999 8.16102C13.6891 8.32138 13.606 8.50652 13.5506 8.71645C13.4952 8.92346 13.4675 9.14359 13.4675 9.37685ZM20.8762 10.6976V7.0589H21.6897V11.791H20.9155L20.8762 10.6976ZM21.0293 9.70049L21.366 9.69174C21.366 10.0066 21.3325 10.2982 21.2654 10.5664C21.2013 10.8318 21.0963 11.0621 20.9505 11.2574C20.8048 11.4528 20.6138 11.6059 20.3776 11.7167C20.1414 11.8245 19.8542 11.8785 19.516 11.8785C19.2857 11.8785 19.0743 11.845 18.8819 11.7779C18.6924 11.7108 18.5291 11.6073 18.392 11.4674C18.255 11.3274 18.1486 11.1452 18.0728 10.9207C17.9999 10.6962 17.9634 10.4265 17.9634 10.1116V7.0589H18.7725V10.1203C18.7725 10.3332 18.7959 10.5096 18.8425 10.6495C18.8921 10.7866 18.9577 10.8959 19.0393 10.9775C19.1239 11.0563 19.2172 11.1117 19.3192 11.1437C19.4242 11.1758 19.5321 11.1918 19.6429 11.1918C19.9869 11.1918 20.2595 11.1262 20.4607 10.995C20.6619 10.8609 20.8062 10.6816 20.8937 10.4571C20.9841 10.2297 21.0293 9.97747 21.0293 9.70049Z" fill="white"/>
</svg>
